<svg id="Layer_1" data-name="Layer 1" xmlns="http://www.w3.org/2000/svg" viewBox="0 0 42.67439 45.7897"><defs><style>.cls-1{fill:#172f4a;}.cls-2{fill:#d37919;}</style></defs><path class="cls-1" d="M16.21226,41.19649c.02259.80357-.609,1.27062-1.1933,1.05378a2.36047,2.36047,0,0,1-.61348-.38561q-4.62021-3.66085-9.237-7.326c-.52031-.41112-.98394-.87806-.49834-1.51713.52172-.68659,1.11518-.33953,1.65927.094,3.04956,2.43,6.10854,4.84822,9.15262,7.285A6.04214,6.04214,0,0,1,16.21226,41.19649Z" transform="translate(0.00064 0.00002)"/><path class="cls-1" d="M26.69651,3.63835a8.07764,8.07764,0,0,1,.98225.534q4.72908,3.58835,9.44553,7.19329c.53341.40551.957.87537.46465,1.51738-.497.64806-1.05712.34071-1.58551-.06388-3.16641-2.42449-6.34925-4.82785-9.49377-7.28023a1.63753,1.63753,0,0,1-.488-1.13752C26.01511,4.16371,26.43727,3.91415,26.69651,3.63835Z" transform="translate(0.00064 0.00002)"/><path class="cls-1" d="M23.99027,6.24661c-.48109,4.23578-.93172,8.22775-1.39059,12.21877-.07341.63848-.34,1.17415-1.09568,1.03332-.72565-.13522-.79392-.69768-.7169-1.34691q.69909-5.89347,1.353-11.7922c.07541-.68087.26349-1.26541,1.05615-1.18385a.8617.8617,0,0,1,.794,1.07087Z" transform="translate(0.00064 0.00002)"/><path class="cls-1" d="M35.66658,33.15325c-.036.79468-.599,1.19141-1.188,1.00893a2.06655,2.06655,0,0,1-.62111-.36693q-4.69-3.64677-9.37342-7.30206c-.52659-.41-.94473-.88537-.40371-1.52013.48369-.56749,1.02046-.32617,1.52669.06976,3.14382,2.45878,6.29781,4.90464,9.43525,7.37149A4.04146,4.04146,0,0,1,35.66658,33.15325Z" transform="translate(0.00064 0.00002)"/><path class="cls-1" d="M21.63816,26.93852c-.37676,3.3168-.716,6.3094-1.057,9.30179-.124,1.088-.24557,2.1764-.38086,3.263-.07767.62384-.39156,1.06836-1.07673.94641-.67146-.11953-.80692-.63343-.73391-1.25642q.70112-5.98251,1.37745-11.96788c.07391-.657.31214-1.217,1.04006-1.05376C21.179,26.25505,21.456,26.75959,21.63816,26.93852Z" transform="translate(0.00064 0.00002)"/><path class="cls-1" d="M22.21784,42.92709c-.221-.216-.616-.43388-.70581-.74072a1.37,1.37,0,0,1,.32279-.94368c.1163-.1691.42013-.22.648-.30075q5.53965-1.96356,11.08221-3.919c.2-.07058.44165-.21464.60507-.15731.33873.11882.83921.29907.90267.54813a1.67493,1.67493,0,0,1-.35526,1.08361c-.10249.1652-.42749.19822-.65608.2792q-5.45391,1.9323-10.90954,3.85979C22.89489,42.72714,22.63122,42.79907,22.21784,42.92709Z" transform="translate(0.00064 0.00002)"/><path class="cls-1" d="M36.82369,15.52458c.16093.13431.57251.31211.6416.57845a1.557,1.557,0,0,1-.24249,1.0505c-.11477.19486-.46153.2656-.71483.36531q-5.18181,2.03946-10.36719,4.0699c-.22634.08873-.487.27518-.67988.22348-.345-.09249-.8064-.26148-.92813-.53-.11858-.26152.12313-.68882.21839-1.04017.012-.04444.091-.0805.14611-.10224q5.77464-2.27745,11.55132-4.54994A3.141,3.141,0,0,1,36.82369,15.52458Z" transform="translate(0.00064 0.00002)"/><path class="cls-1" d="M5.55626,30.04523c-.21379-.17515-.63167-.351-.69659-.61374a1.75058,1.75058,0,0,1,.2614-1.04734c.07349-.14967.357-.20681.5538-.2844q5.30328-2.09063,10.60964-4.17343c.19668-.07718.43328-.22072.60076-.16932.3445.10575.85751.26414.92827.50848a1.76482,1.76482,0,0,1-.326,1.0929c-.07842.14808-.36478.193-.56223.27072q-5.26149,2.072-10.52516,4.13842C6.17594,29.85551,5.94216,29.91911,5.55626,30.04523Z" transform="translate(0.00064 0.00002)"/><path class="cls-1" d="M42.67161,14.76064a2.01614,2.01614,0,0,1-4.03228.00547q0-.02749.00068-.055a2.07285,2.07285,0,0,1,2.07414-2.07158l.02269.00014A2.03068,2.03068,0,0,1,42.67161,14.76064Z" transform="translate(0.00064 0.00002)"/><path class="cls-1" d="M4.03051,31.16114a2.01554,2.01554,0,0,1-4.029.12868l-.00087-.03955A2.07171,2.07171,0,0,1,1.99983,29.1085l.02532-.00072a2.028,2.028,0,0,1,2.0054,2.05035Z" transform="translate(0.00064 0.00002)"/><path class="cls-1" d="M38.33491,34.14531a2.04134,2.04134,0,1,1-.04038.00023Q38.31472,34.14523,38.33491,34.14531Z" transform="translate(0.00064 0.00002)"/><path class="cls-1" d="M21.54881,2.086a2.02457,2.02457,0,0,1,4.04728-.12285q.00171.0565.00027.113a2.101,2.101,0,0,1-2.0317,2.05734A2.03987,2.03987,0,0,1,21.54881,2.086Z" transform="translate(0.00064 0.00002)"/><path class="cls-1" d="M16.78419,43.71a2.02394,2.02394,0,1,1,4.04771-.03775l0,.00746a2.09667,2.09667,0,0,1-2.06817,2.11A2.03634,2.03634,0,0,1,16.78419,43.71Z" transform="translate(0.00064 0.00002)"/><path class="cls-2" d="M19.26815,22.94288a1.96106,1.96106,0,0,1,1.91392-2.0071l.023-.00041a2.0983,2.0983,0,0,1,1.95978,1.94556,2.143,2.143,0,0,1-1.94907,2.063A1.976,1.976,0,0,1,19.26815,22.94288Z" transform="translate(0.00064 0.00002)"/></svg>