<svg width="411" height="558" viewBox="0 0 411 558" fill="none" xmlns="http://www.w3.org/2000/svg">
<path d="M410.781 335.985C410.781 333.406 410.655 330.824 410.754 328.25C410.903 326.747 410.709 325.23 410.188 323.813C409.668 322.395 408.833 321.114 407.747 320.064C398.456 309.988 388.386 300.657 377.632 292.16C375.381 288.527 372.493 285.33 369.105 282.724C359.799 273.308 357.693 275.102 368.682 262.522C370.368 260.592 372.328 258.899 374.172 257.106C383.682 247.862 392.893 238.28 402.819 229.506C405.577 227.205 407.748 224.28 409.154 220.974C410.56 217.668 411.16 214.075 410.903 210.492C410.531 165.062 410.727 119.628 410.727 74.1955C410.727 72.0525 410.622 69.905 410.726 67.7677C410.83 66.0515 410.543 64.334 409.884 62.7456C409.226 61.1572 408.214 59.7398 406.926 58.601C405.058 56.8377 403.114 55.1517 401.305 53.33C386.83 38.7543 371.065 25.469 357.709 9.76965C357.131 8.86501 356.357 8.10248 355.444 7.53904C354.53 6.97561 353.501 6.62581 352.434 6.51573C348.247 -0.934585 341.07 0.0419054 334.228 0.04234C227.64 0.045913 121.052 0.0483232 14.4647 0.0495785C-1.30695 0.0504476 0.0282677 -1.11255 0.0278332 14.753C0.0199158 190.522 0.0199158 366.291 0.0278332 542.06C0.0282677 545.497 -0.0260094 548.941 0.165459 552.369C0.390817 556.41 1.71552 557.661 5.65633 557.828C7.80129 557.919 9.95334 557.819 12.1023 557.818C119.55 557.802 226.998 557.668 334.444 557.983C338.702 558.125 342.943 557.385 346.901 555.808C350.858 554.231 354.447 551.852 357.44 548.82C358.676 547.626 359.881 546.399 361.101 545.188C374.808 531.574 388.251 517.678 402.345 504.476C405.228 501.985 407.504 498.867 408.998 495.361C410.492 491.855 411.165 488.054 410.966 484.248C410.594 434.829 410.785 385.406 410.781 335.985ZM234.302 402.901C234.247 406.36 233.493 409.772 232.085 412.931C230.678 416.091 228.646 418.933 226.112 421.288C223.579 423.642 220.595 425.46 217.341 426.632C214.087 427.804 210.63 428.306 207.177 428.108C200.221 428.336 193.455 425.819 188.34 421.1C183.225 416.38 180.172 409.838 179.84 402.886C179.343 393.446 179.323 383.986 179.781 374.544C180.117 367.86 182.786 361.505 187.321 356.585C191.857 351.665 197.974 348.489 204.608 347.612C208.249 347.306 211.916 347.731 215.391 348.861C218.866 349.992 222.081 351.805 224.846 354.195C227.611 356.585 229.871 359.503 231.494 362.778C233.116 366.054 234.067 369.62 234.293 373.268C234.552 378.409 234.334 383.574 234.334 388.729H234.347C234.347 393.454 234.59 398.194 234.302 402.901ZM234.193 181.297C234.03 184.646 233.207 187.93 231.771 190.96C230.336 193.991 228.315 196.707 225.826 198.954C223.336 201.2 220.428 202.932 217.267 204.051C214.106 205.169 210.755 205.651 207.407 205.47C200.674 205.657 194.116 203.312 189.028 198.898C183.94 194.485 180.691 188.324 179.924 181.631C179.651 176.911 179.625 172.18 179.846 167.458H179.764C179.764 163.159 179.626 158.855 179.788 154.563C180.466 147.667 183.705 141.275 188.867 136.653C194.029 132.03 200.737 129.513 207.665 129.598C214.414 129.499 220.943 132.003 225.895 136.59C230.847 141.177 233.843 147.496 234.26 154.234C234.813 163.247 234.791 172.286 234.193 181.297Z" fill="black"/>
</svg>
