<svg width="451" height="1090" viewBox="0 0 451 1090" fill="none" xmlns="http://www.w3.org/2000/svg">
<g clip-path="url(#clip0_3000_90)">
<mask id="mask0_3000_90" style="mask-type:luminance" maskUnits="userSpaceOnUse" x="-1" y="0" width="452" height="1090">
<path d="M450.388 0H-0.0078125V1089.22H450.388V0Z" fill="white"/>
</mask>
<g mask="url(#mask0_3000_90)">
<path d="M389.037 189.428H104.391V883.985H389.037V189.428Z" fill="white"/>
<path d="M222.91 573.825H189.18V719.298H232.533C245.529 719.298 255.251 715.658 261.601 708.675C267.949 701.692 271.223 689.495 271.223 672.282V630.971C271.223 609.431 267.552 594.579 259.913 586.316C252.275 578.054 239.875 573.727 222.91 573.727V573.825Z" fill="url(#paint0_radial_3000_90)"/>
<path d="M252.269 494.449C259.611 486.875 263.282 473.99 263.282 456.088V429.63C263.282 397.27 250.583 381.041 225.286 380.647H188.977V505.956H218.639C233.619 505.956 245.027 502.022 252.369 494.35L252.269 494.449Z" fill="url(#paint1_radial_3000_90)"/>
<path d="M225.19 0C100.885 0 -0.0078125 99.9325 -0.0078125 223.274V865.95C-0.0078125 989.193 100.785 1089.22 225.19 1089.22C349.496 1089.22 450.388 989.287 450.388 865.95V223.274C450.388 100.031 349.594 0 225.19 0ZM346.023 674.642C346.023 711.33 336.301 739.165 317.055 758.346C304.952 770.345 289.376 778.508 270.329 783.033V799.853C270.329 811.852 260.408 821.688 248.305 821.688C236.202 821.688 226.182 811.852 226.182 799.853V787.065H188.98V799.853C188.98 811.852 179.059 821.688 166.956 821.688C154.853 821.688 144.932 811.852 144.932 799.853V787.065H138.087C122.115 787.065 114.079 779.099 114.079 763.263V336.682C114.079 320.846 122.115 312.879 138.087 312.879H144.932V289.272C144.932 277.273 154.853 267.437 166.956 267.437C179.059 267.437 188.98 277.273 188.98 289.272V312.879H226.182V289.272C226.182 277.273 236.103 267.437 248.305 267.437C260.508 267.437 270.329 277.273 270.329 289.272V314.846C270.329 315.83 270.13 316.715 270.032 317.6C287.591 321.928 301.679 329.207 312.095 339.632C329.754 357.534 338.781 384.976 338.781 421.959V440.844C338.781 489.432 322.412 520.514 290.071 533.793V535.071C327.471 547.661 346.123 580.709 346.123 633.922V674.642H346.023Z" fill="url(#paint2_radial_3000_90)"/>
</g>
</g>
<defs>
<radialGradient id="paint0_radial_3000_90" cx="0" cy="0" r="1" gradientTransform="matrix(49.9943 683.477 -282.612 20.7013 126.624 143.205)" gradientUnits="userSpaceOnUse">
<stop stop-color="#FF9900"/>
<stop offset="1" stop-color="#FF5C00"/>
</radialGradient>
<radialGradient id="paint1_radial_3000_90" cx="0" cy="0" r="1" gradientTransform="matrix(49.9943 683.477 -282.612 20.7013 126.619 143.204)" gradientUnits="userSpaceOnUse">
<stop stop-color="#FF9900"/>
<stop offset="1" stop-color="#FF5C00"/>
</radialGradient>
<radialGradient id="paint2_radial_3000_90" cx="0" cy="0" r="1" gradientTransform="matrix(49.9943 683.477 -282.612 20.7013 126.623 143.205)" gradientUnits="userSpaceOnUse">
<stop stop-color="#FF9900"/>
<stop offset="1" stop-color="#FF5C00"/>
</radialGradient>
<clipPath id="clip0_3000_90">
<rect width="450.396" height="1089.22" fill="white"/>
</clipPath>
</defs>
</svg>
