<svg id="Layer_1" data-name="Layer 1" xmlns="http://www.w3.org/2000/svg" viewBox="0 0 131.14 162.46"><defs><style>.cls-1{fill:#039;}</style></defs><path class="cls-1" d="M38.762,137.8272l14.532-82.416H98.536l-.016.053c13.274.804,21.749,11.434,19.866,25.276-.049.36-.1.721-.164,1.085a24.99652,24.99652,0,0,1-8.658,14.435,18.96033,18.96033,0,0,1,5.519,15.154,29.88828,29.88828,0,0,1-29.485,26.368l-.007.04-1.271.005Zm47.495-17.422c1.873,0,5.375-.471,6.666-1.357a9.92733,9.92733,0,0,0,4.53-6.809c.92-5.392-1.804-7.999-7.411-7.999H61.91l-2.85,16.165Zm4.716-31.407c3.801,0,8.636-1.389,10.231-7.999a6.0729,6.0729,0,0,0-2.048-6.566c-.978-.886-4.394-1.6-6.268-1.6H67.448l-2.85,16.165Z" transform="translate(-12.1504 -15.8116)"/><path class="cls-1" d="M68.5754,178.2716l2.793-15.84H51.6494l-2.793,15.84H31.6304l2.793-15.84h-1.031c-7.592,0-10.904-3.43-16.782-8.747l-4.46-4.994h68.084c25.938,0,40.92-14.245,45.271-33.87,1.336-6.026.288-13.874-3.93-17.557l-.512-.803.795-.802c.322-.325.641-.664.946-1.008a32.072,32.072,0,0,0,7.419-16.549c2.57-19.626-11.446-33.87-33.326-33.87H44.1124l-16.505,93.595H14.0794l18.926-106.491h24.683l2.737-15.524h17.226l-2.737,15.524h19.719l2.737-15.524h17.227l-2.884,16.356c8.783,1.822,27.782,8.778,31.228,34.052a42.84118,42.84118,0,0,1-7.803,30.241c4.63,5.571,5.491,14.123,4.509,19.693-2.367,13.42-8.223,24.852-19.765,34.141-9.803,7.891-14.072,9.166-31.141,11.304l-2.939,16.673Z" transform="translate(-12.1504 -15.8116)"/></svg>