<svg width="2016" height="894" viewBox="0 0 2016 894" fill="none" xmlns="http://www.w3.org/2000/svg">
<path d="M1005.02 515.85C1004.32 484.75 986.473 454 951.573 440.9C951.573 440.9 934.073 445.7 898.323 446.65V446C939.423 440.6 959.973 409.25 959.973 377.9H929.973C929.973 404.1 912.973 430.2 879.073 430.2H301.573L268.323 446.8H268.223L885.423 446.85C912.773 446.85 933.273 455.5 946.973 468.4C947.823 469.2 948.673 470 949.473 470.9C961.473 483.5 967.473 499.65 967.473 515.8H1005.02V515.85ZM879.073 568.15H301.573L268.223 584.85H885.423C940.123 584.85 967.473 550.35 967.473 515.85H933.723C933.723 542 915.473 568.15 879.073 568.15ZM268.223 308.9H471.873V260.65L503.173 244H440.623V292.25H184.973L268.223 308.9L234.873 334.65V559.1L184.973 601.5L268.223 584.85V308.9ZM897.673 292.25H739.423L708.123 308.9H885.423C935.123 308.9 959.973 343.4 959.973 377.9H989.873C992.323 335.9 961.573 292.25 897.673 292.25ZM708.123 260.65L739.423 244H676.873V292.25H503.173L471.873 308.9H708.123V260.65ZM676.873 649.7L708.123 633.05V584.85L676.873 601.5V649.7ZM440.623 649.7L471.873 633.05V584.85L440.623 601.5V649.7Z" fill="#E55414"/>
<mask id="mask0_20_18" style="mask-type:alpha" maskUnits="userSpaceOnUse" x="184" y="244" width="822" height="406">
<path d="M268.223 308.9L184.973 292.25L234.873 334.65L268.223 308.9ZM184.973 601.5H440.623L471.873 584.85H268.223L184.973 601.5ZM268.223 446.85V584.85L301.573 568.15V463.55H879.073C915.473 463.55 933.723 489.7 933.723 515.85H967.473C967.473 481.35 940.123 446.85 885.423 446.85H268.223L301.573 430.2V325.55H879.073C913.023 325.55 929.973 351.75 929.973 377.9H959.973C959.973 343.4 935.123 308.9 885.423 308.9H268.223V446.85ZM503.173 244L471.873 260.65V308.9L503.173 292.25V244ZM739.423 244L708.123 260.65V308.9L739.423 292.25V244ZM967.473 515.85C967.473 550.35 940.123 584.85 885.423 584.85H708.123V633.05L676.873 649.7H739.423V601.5H912.673C975.273 601.5 1006.02 558.35 1005.02 515.85H967.473ZM471.873 633.05L440.623 649.7H503.173V601.5H676.873L708.123 584.85H471.873V633.05ZM898.323 446V446.65C934.073 445.7 951.573 440.9 951.573 440.9C975.723 426.5 988.473 402.5 989.873 377.9H959.973C959.973 409.25 939.423 440.6 898.323 446Z" fill="#FF0000"/>
</mask>
<g mask="url(#mask0_20_18)">
<path d="M-4269.17 3556.01L4026.17 -2848.43M-4257.38 3556.01L4037.96 -2848.43M-4245.58 3556.01L4049.76 -2848.43M-4233.79 3556.01L4061.56 -2848.43M-4221.99 3556.01L4073.35 -2848.43M-4210.19 3556.01L4085.15 -2848.43M-4198.4 3556.01L4096.94 -2848.43M-4186.6 3556.01L4108.74 -2848.43M-4174.81 3556.01L4120.54 -2848.43M-4163.01 3556.01L4132.33 -2848.43M-4151.22 3556.01L4144.13 -2848.43M-4139.42 3556.01L4155.92 -2848.43M-4127.62 3556.01L4167.72 -2848.43M-4115.83 3556.01L4179.52 -2848.43M-4104.03 3556.01L4191.31 -2848.43M-4092.24 3556.01L4203.11 -2848.43M-4080.44 3556.01L4214.9 -2848.43M-4068.64 3556.01L4226.7 -2848.43M-4056.85 3556.01L4238.5 -2848.43M-4045.05 3556.01L4250.29 -2848.43M-4033.26 3556.01L4262.09 -2848.43M-4021.46 3556.01L4273.88 -2848.43M-4009.66 3556.01L4285.68 -2848.43M-3997.87 3556.01L4297.48 -2848.43M-3986.07 3556.01L4309.27 -2848.43M-3974.28 3556.01L4321.07 -2848.43M-3962.48 3556.01L4332.86 -2848.43M-3950.68 3556.01L4344.66 -2848.43M-3938.89 3556.01L4356.45 -2848.43M-3927.09 3556.01L4368.25 -2848.43M-3915.3 3556.01L4380.05 -2848.43M-3903.5 3556.01L4391.84 -2848.43M-3891.7 3556.01L4403.64 -2848.43M-3879.91 3556.01L4415.43 -2848.43M-3868.11 3556.01L4427.23 -2848.43M-3856.32 3556.01L4439.03 -2848.43M-3844.52 3556.01L4450.82 -2848.43M-3832.72 3556.01L4462.62 -2848.43M-3820.93 3556.01L4474.41 -2848.43M-3809.13 3556.01L4486.21 -2848.43M-3797.34 3556.01L4498.01 -2848.43M-3785.54 3556.01L4509.8 -2848.43M-3773.75 3556.01L4521.6 -2848.43M-3761.95 3556.01L4533.39 -2848.43M-3750.15 3556.01L4545.19 -2848.43M-3738.36 3556.01L4556.99 -2848.43M-3726.56 3556.01L4568.78 -2848.43M-3714.77 3556.01L4580.58 -2848.43M-3702.97 3556.01L4592.37 -2848.43M-3691.17 3556.01L4604.17 -2848.43M-3679.38 3556.01L4615.97 -2848.43M-3667.58 3556.01L4627.76 -2848.43M-3655.79 3556.01L4639.56 -2848.43M-3643.99 3556.01L4651.35 -2848.43M-3632.19 3556.01L4663.15 -2848.43M-3620.4 3556.01L4674.95 -2848.43M-3608.6 3556.01L4686.74 -2848.43M-3596.81 3556.01L4698.54 -2848.43M-3585.01 3556.01L4710.33 -2848.43M-3573.21 3556.01L4722.13 -2848.43M-3561.42 3556.01L4733.92 -2848.43M-3549.62 3556.01L4745.72 -2848.43M-3537.83 3556.01L4757.52 -2848.43M-3526.03 3556.01L4769.31 -2848.43M-3514.23 3556.01L4781.11 -2848.43M-3502.44 3556.01L4792.9 -2848.43M-3490.64 3556.01L4804.7 -2848.43M-3478.85 3556.01L4816.5 -2848.43M-3467.05 3556.01L4828.29 -2848.43M-3455.26 3556.01L4840.09 -2848.43M-3443.46 3556.01L4851.88 -2848.43M-3431.66 3556.01L4863.68 -2848.43M-3419.87 3556.01L4875.48 -2848.43M-3408.07 3556.01L4887.27 -2848.43M-3396.28 3556.01L4899.07 -2848.43M-3384.48 3556.01L4910.86 -2848.43M-3372.68 3556.01L4922.66 -2848.43M-3360.89 3556.01L4934.46 -2848.43M-3349.09 3556.01L4946.25 -2848.43M-3337.3 3556.01L4958.05 -2848.43M-3325.5 3556.01L4969.84 -2848.43M-3313.7 3556.01L4981.64 -2848.43M-3301.91 3556.01L4993.44 -2848.43M-3290.11 3556.01L5005.23 -2848.43M-3278.32 3556.01L5017.03 -2848.43M-3266.52 3556.01L5028.82 -2848.43M-3254.72 3556.01L5040.62 -2848.43M-3242.93 3556.01L5052.41 -2848.43M-3231.13 3556.01L5064.21 -2848.43M-3219.34 3556.01L5076.01 -2848.43M-3207.54 3556.01L5087.8 -2848.43M-3195.74 3556.01L5099.6 -2848.43M-3183.95 3556.01L5111.39 -2848.43M-3172.15 3556.01L5123.19 -2848.43M-3160.36 3556.01L5134.99 -2848.43M-3148.56 3556.01L5146.78 -2848.43M-3136.77 3556.01L5158.58 -2848.43M-3124.97 3556.01L5170.37 -2848.43M-3113.17 3556.01L5182.17 -2848.43M-3101.38 3556.01L5193.97 -2848.43M-3089.58 3556.01L5205.76 -2848.43M-3077.79 3556.01L5217.56 -2848.43M-3065.99 3556.01L5229.35 -2848.43M-3054.19 3556.01L5241.15 -2848.43M-3042.4 3556.01L5252.95 -2848.43M-3030.6 3556.01L5264.74 -2848.43M-3018.81 3556.01L5276.54 -2848.43M-3007.01 3556.01L5288.33 -2848.43M-2995.21 3556.01L5300.13 -2848.43M-2983.42 3556.01L5311.93 -2848.43M-2971.62 3556.01L5323.72 -2848.43M-2959.83 3556.01L5335.52 -2848.43M-2948.03 3556.01L5347.31 -2848.43M-2936.23 3556.01L5359.11 -2848.43M-2924.44 3556.01L5370.9 -2848.43M-2912.64 3556.01L5382.7 -2848.43M-2900.85 3556.01L5394.5 -2848.43M-2889.05 3556.01L5406.29 -2848.43M-2877.25 3556.01L5418.09 -2848.43M-2865.46 3556.01L5429.88 -2848.43M-2853.66 3556.01L5441.68 -2848.43M-2841.87 3556.01L5453.48 -2848.43M-2830.07 3556.01L5465.27 -2848.43M-2818.28 3556.01L5477.07 -2848.43M-2806.48 3556.01L5488.86 -2848.43M-2794.68 3556.01L5500.66 -2848.43M-2782.89 3556.01L5512.46 -2848.43M-2771.09 3556.01L5524.25 -2848.43M-2759.3 3556.01L5536.05 -2848.43M-2747.5 3556.01L5547.84 -2848.43M-2735.7 3556.01L5559.64 -2848.43M-2723.91 3556.01L5571.44 -2848.43M-2712.11 3556.01L5583.23 -2848.43M-2700.32 3556.01L5595.03 -2848.43M-2688.52 3556.01L5606.82 -2848.43M-2676.72 3556.01L5618.62 -2848.43M-2664.93 3556.01L5630.42 -2848.43M-2653.13 3556.01L5642.21 -2848.43M-2641.34 3556.01L5654.01 -2848.43M-2629.54 3556.01L5665.8 -2848.43M-2617.74 3556.01L5677.6 -2848.43M-2605.95 3556.01L5689.39 -2848.43M-2594.15 3556.01L5701.19 -2848.43M-2582.36 3556.01L5712.99 -2848.43M-2570.56 3556.01L5724.78 -2848.43M-2558.76 3556.01L5736.58 -2848.43M-2546.97 3556.01L5748.37 -2848.43M-2535.17 3556.01L5760.17 -2848.43M-2523.38 3556.01L5771.97 -2848.43M-2511.58 3556.01L5783.76 -2848.43M-2499.78 3556.01L5795.56 -2848.43M-2487.99 3556.01L5807.35 -2848.43M-2476.19 3556.01L5819.15 -2848.43M-2464.4 3556.01L5830.95 -2848.43M-2452.6 3556.01L5842.74 -2848.43M-2440.81 3556.01L5854.54 -2848.43M-2429.01 3556.01L5866.33 -2848.43M-2417.21 3556.01L5878.13 -2848.43M-2405.42 3556.01L5889.93 -2848.43M-2393.62 3556.01L5901.72 -2848.43M-2381.83 3556.01L5913.52 -2848.43M-2370.03 3556.01L5925.31 -2848.43M-2358.23 3556.01L5937.11 -2848.43M-2346.44 3556.01L5948.91 -2848.43M-2334.64 3556.01L5960.7 -2848.43M-2322.85 3556.01L5972.5 -2848.43M-2311.05 3556.01L5984.29 -2848.43M-2299.25 3556.01L5996.09 -2848.43M-2287.46 3556.01L6007.89 -2848.43M-2275.66 3556.01L6019.68 -2848.43M-2263.87 3556.01L6031.48 -2848.43M-2252.07 3556.01L6043.27 -2848.43M-2240.27 3556.01L6055.07 -2848.43M-2228.48 3556.01L6066.86 -2848.43M-2216.68 3556.01L6078.66 -2848.43M-2204.89 3556.01L6090.46 -2848.43M-2193.09 3556.01L6102.25 -2848.43M-2181.29 3556.01L6114.05 -2848.43M-2169.5 3556.01L6125.84 -2848.43M-2157.7 3556.01L6137.64 -2848.43M-2145.91 3556.01L6149.44 -2848.43M-2134.11 3556.01L6161.23 -2848.43M-2122.32 3556.01L6173.03 -2848.43M-2110.52 3556.01L6184.82 -2848.43M-2098.72 3556.01L6196.62 -2848.43M-2086.93 3556.01L6208.42 -2848.43M-2075.13 3556.01L6220.21 -2848.43M-2063.34 3556.01L6232.01 -2848.43M-2051.54 3556.01L6243.8 -2848.43M-2039.74 3556.01L6255.6 -2848.43M-2027.95 3556.01L6267.4 -2848.43M-2016.15 3556.01L6279.19 -2848.43M-2004.36 3556.01L6290.99 -2848.43M-1992.56 3556.01L6302.78 -2848.43M-1980.76 3556.01L6314.58 -2848.43M-1968.97 3556.01L6326.38 -2848.43M-1957.17 3556.01L6338.17 -2848.43M-1945.38 3556.01L6349.97 -2848.43M-1933.58 3556.01L6361.76 -2848.43M-1921.78 3556.01L6373.56 -2848.43M-1909.99 3556.01L6385.35 -2848.43M-1898.19 3556.01L6397.15 -2848.43M-1886.4 3556.01L6408.95 -2848.43M-1874.6 3556.01L6420.74 -2848.43M-1862.8 3556.01L6432.54 -2848.43M-1851.01 3556.01L6444.33 -2848.43M-1839.21 3556.01L6456.13 -2848.43M-1827.42 3556.01L6467.93 -2848.43M-1815.62 3556.01L6479.72 -2848.43M-1803.83 3556.01L6491.52 -2848.43M-1792.03 3556.01L6503.31 -2848.43M-1780.23 3556.01L6515.11 -2848.43M-1768.44 3556.01L6526.91 -2848.43M-1756.64 3556.01L6538.7 -2848.43M-1744.85 3556.01L6550.5 -2848.43M-1733.05 3556.01L6562.29 -2848.43M-1721.25 3556.01L6574.09 -2848.43M-1709.46 3556.01L6585.89 -2848.43M-1697.66 3556.01L6597.68 -2848.43M-1685.87 3556.01L6609.48 -2848.43M-1674.07 3556.01L6621.27 -2848.43M-1662.27 3556.01L6633.07 -2848.43M-1650.48 3556.01L6644.87 -2848.43M-1638.68 3556.01L6656.66 -2848.43M-1626.89 3556.01L6668.46 -2848.43M-1615.09 3556.01L6680.25 -2848.43M-1603.29 3556.01L6692.05 -2848.43M-1591.5 3556.01L6703.84 -2848.43M-1579.7 3556.01L6715.64 -2848.43M-1567.91 3556.01L6727.44 -2848.43M-1556.11 3556.01L6739.23 -2848.43M-1544.31 3556.01L6751.03 -2848.43M-1532.52 3556.01L6762.82 -2848.43M-1520.72 3556.01L6774.62 -2848.43M-1508.93 3556.01L6786.42 -2848.43M-1497.13 3556.01L6798.21 -2848.43M-1485.34 3556.01L6810.01 -2848.43M-1473.54 3556.01L6821.8 -2848.43M-1461.74 3556.01L6833.6 -2848.43M-1449.95 3556.01L6845.4 -2848.43M-1438.15 3556.01L6857.19 -2848.43M-1426.36 3556.01L6868.99 -2848.43M-1414.56 3556.01L6880.78 -2848.43M-1402.76 3556.01L6892.58 -2848.43M-1390.97 3556.01L6904.38 -2848.43M-1379.17 3556.01L6916.17 -2848.43M-1367.38 3556.01L6927.97 -2848.43M-1355.58 3556.01L6939.76 -2848.43M-1343.78 3556.01L6951.56 -2848.43M-1331.99 3556.01L6963.36 -2848.43M-1320.19 3556.01L6975.15 -2848.43M-1308.4 3556.01L6986.95 -2848.43M-1296.6 3556.01L6998.74 -2848.43M-1284.8 3556.01L7010.54 -2848.43M-1273.01 3556.01L7022.33 -2848.43M-1261.21 3556.01L7034.13 -2848.43M-1249.42 3556.01L7045.93 -2848.43M-1237.62 3556.01L7057.72 -2848.43M-1225.82 3556.01L7069.52 -2848.43M-1214.03 3556.01L7081.31 -2848.43M-1202.23 3556.01L7093.11 -2848.43M-1190.44 3556.01L7104.91 -2848.43M-1178.64 3556.01L7116.7 -2848.43M-1166.84 3556.01L7128.5 -2848.43M-1155.05 3556.01L7140.29 -2848.43M-1143.25 3556.01L7152.09 -2848.43M-1131.46 3556.01L7163.89 -2848.43M-1119.66 3556.01L7175.68 -2848.43M-1107.87 3556.01L7187.48 -2848.43M-1096.07 3556.01L7199.27 -2848.43M-1084.27 3556.01L7211.07 -2848.43M-1072.48 3556.01L7222.87 -2848.43M-1060.68 3556.01L7234.66 -2848.43M-1048.89 3556.01L7246.46 -2848.43M-1037.09 3556.01L7258.25 -2848.43M-1025.29 3556.01L7270.05 -2848.43M-1013.5 3556.01L7281.85 -2848.43M-1001.7 3556.01L7293.64 -2848.43M-989.906 3556.01L7305.44 -2848.43M-978.11 3556.01L7317.23 -2848.43M-966.314 3556.01L7329.03 -2848.43M-954.518 3556.01L7340.83 -2848.43M-942.722 3556.01L7352.62 -2848.43M-930.926 3556.01L7364.42 -2848.43M-919.13 3556.01L7376.21 -2848.43M-907.335 3556.01L7388.01 -2848.43M-895.539 3556.01L7399.8 -2848.43M-883.743 3556.01L7411.6 -2848.43M-871.947 3556.01L7423.4 -2848.43" stroke="#E55414" stroke-width="2"/>
</g>
<path fill-rule="evenodd" clip-rule="evenodd" d="M1273.77 481.546C1281.09 481.547 1287.83 482.828 1293.98 485.336C1300.12 487.844 1305.49 491.431 1310.06 496.103C1314.63 500.726 1318.18 506.187 1320.73 512.433C1323.29 518.677 1324.57 525.513 1324.57 532.839C1324.57 538.74 1323.73 544.349 1322.11 549.562C1320.49 554.775 1318.13 559.497 1315.03 563.677C1311.93 567.857 1308.29 571.497 1304.11 574.546C1299.93 577.595 1295.26 579.953 1290.09 581.625C1284.93 583.297 1279.47 584.137 1273.71 584.137C1266.39 584.136 1259.6 582.855 1253.36 580.347C1247.11 577.839 1241.65 574.252 1237.03 569.58C1232.4 564.957 1228.86 559.496 1226.36 553.25C1223.85 547.005 1222.62 540.167 1222.62 532.839C1222.62 526.939 1223.46 521.333 1225.08 516.121C1226.7 510.908 1229.06 506.186 1232.06 502.006C1235.11 497.826 1238.7 494.186 1242.98 491.137C1247.21 488.088 1251.93 485.726 1257.15 484.053C1262.36 482.382 1267.87 481.546 1273.77 481.546ZM1273.57 497.876C1269.93 497.876 1266.44 498.464 1263.19 499.595C1259.9 500.726 1256.95 502.35 1254.29 504.465C1251.64 506.579 1249.37 509.037 1247.51 511.938C1245.64 514.79 1244.21 517.988 1243.17 521.529C1242.14 525.069 1241.65 528.856 1241.65 532.839C1241.65 539.528 1243.03 545.481 1245.83 550.743C1248.63 556.005 1252.42 560.137 1257.24 563.235C1262.06 566.284 1267.47 567.807 1273.57 567.807C1277.21 567.807 1280.65 567.219 1283.9 566.088C1287.14 564.957 1290.04 563.333 1292.7 561.218C1295.36 559.103 1297.62 556.642 1299.49 553.74C1301.35 550.889 1302.83 547.694 1303.91 544.154C1305 540.613 1305.48 536.823 1305.48 532.839C1305.48 526.151 1304.11 520.201 1301.35 514.94C1298.6 509.677 1294.81 505.546 1290.04 502.448C1285.22 499.399 1279.77 497.876 1273.57 497.876Z" fill="#262626"/>
<path fill-rule="evenodd" clip-rule="evenodd" d="M1728.44 481.546C1735.76 481.547 1742.5 482.828 1748.65 485.336C1754.79 487.844 1760.16 491.431 1764.73 496.103C1769.3 500.726 1772.85 506.187 1775.4 512.433C1777.96 518.677 1779.24 525.513 1779.24 532.839C1779.24 538.74 1778.4 544.349 1776.78 549.562C1775.16 554.775 1772.8 559.497 1769.7 563.677C1766.6 567.857 1762.96 571.497 1758.78 574.546C1754.6 577.595 1749.93 579.953 1744.76 581.625C1739.6 583.297 1734.14 584.137 1728.38 584.137C1721.06 584.136 1714.27 582.855 1708.03 580.347C1701.78 577.839 1696.32 574.251 1691.7 569.58C1687.07 564.957 1683.53 559.496 1681.03 553.25C1678.52 547.005 1677.29 540.167 1677.29 532.839C1677.29 526.939 1678.13 521.333 1679.75 516.121C1681.37 510.908 1683.73 506.186 1686.73 502.006C1689.78 497.826 1693.37 494.186 1697.65 491.137C1701.88 488.089 1706.6 485.726 1711.81 484.053C1717.02 482.381 1722.54 481.546 1728.44 481.546ZM1728.24 497.876C1724.6 497.876 1721.11 498.464 1717.86 499.595C1714.57 500.726 1711.62 502.351 1708.96 504.465C1706.31 506.579 1704.04 509.036 1702.17 511.938C1700.3 514.79 1698.88 517.988 1697.84 521.529C1696.81 525.069 1696.32 528.856 1696.32 532.839C1696.32 539.528 1697.7 545.481 1700.5 550.743C1703.3 556.005 1707.09 560.137 1711.91 563.235C1716.73 566.284 1722.14 567.807 1728.24 567.807C1731.88 567.807 1735.32 567.219 1738.57 566.088C1741.81 564.957 1744.71 563.333 1747.37 561.218C1750.03 559.103 1752.29 556.642 1754.16 553.74C1756.02 550.889 1757.5 547.694 1758.58 544.154C1759.67 540.613 1760.15 536.823 1760.15 532.839C1760.15 526.151 1758.78 520.201 1756.02 514.94C1753.27 509.677 1749.48 505.546 1744.71 502.448C1739.89 499.399 1734.44 497.876 1728.24 497.876Z" fill="#262626"/>
<path fill-rule="evenodd" clip-rule="evenodd" d="M1407.89 482.68C1414.92 482.68 1420.92 483.807 1425.94 486.119C1430.95 488.43 1434.79 491.677 1437.49 495.955C1440.2 500.233 1441.52 505.348 1441.53 511.347C1441.53 517.937 1439.8 523.35 1436.41 527.628C1433.98 530.614 1431 533.067 1427.44 534.971C1430.78 536.991 1433.51 539.631 1435.62 542.925C1438.08 546.76 1439.51 551.187 1439.9 556.252L1442.36 583.051H1423.28V583.003L1420.82 558.365C1420.53 554.53 1419.15 551.43 1416.69 548.971C1414.23 546.512 1411.13 545.331 1407.39 545.331H1385.66V583.003H1366.57V482.68H1407.89ZM1385.61 528.954H1407C1410.83 528.954 1413.93 528.218 1416.24 526.793C1418.56 525.366 1420.23 523.496 1421.31 521.135C1422.34 518.775 1422.89 516.265 1422.89 513.609C1422.89 510.954 1422.34 508.494 1421.31 506.232C1420.23 503.971 1418.55 502.154 1416.24 500.728C1413.93 499.302 1410.83 498.562 1407 498.562H1385.61V528.954Z" fill="#262626"/>
<path d="M1194.59 499.004H1163.85V583.003H1144.92V499.004H1114.33V482.68H1194.59V499.004Z" fill="#262626"/>
<path d="M1504.92 583.003H1485.93V566.674H1485.98V499.004H1485.93V482.68H1504.92V583.003Z" fill="#262626"/>
<path d="M1616.3 553.495V482.68H1635.24V583.003H1614.73L1570.87 512.332V583.003H1551.93V482.68H1572.44L1616.3 553.495Z" fill="#262626"/>
<path d="M1456.42 309.615C1464.39 309.615 1471.67 311.093 1478.21 314.043C1484.75 316.994 1490.11 321.124 1494.24 326.386C1498.37 331.648 1500.88 337.699 1501.77 344.584H1481.85C1481.36 340.846 1479.93 337.598 1477.52 334.844C1475.11 332.09 1472.06 329.876 1468.42 328.303C1464.79 326.729 1460.65 325.945 1456.13 325.944C1452.59 325.944 1449.2 326.435 1446.1 327.467C1443 328.5 1440.14 329.926 1437.59 331.746C1435.03 333.566 1432.87 335.925 1431.05 338.777C1429.23 341.58 1427.8 344.829 1426.77 348.517C1425.73 352.205 1425.24 356.335 1425.24 360.908C1425.24 368.531 1426.57 374.974 1429.28 380.138C1431.98 385.302 1435.67 389.239 1440.34 391.895C1445.01 394.549 1450.33 395.924 1456.27 395.924C1460.8 395.924 1464.93 395.14 1468.67 393.566C1472.41 391.993 1475.51 389.78 1477.92 386.977C1480.32 384.174 1481.75 380.924 1482.24 377.285H1501.47C1500.78 384.17 1498.42 390.22 1494.39 395.482C1490.36 400.744 1485.05 404.826 1478.51 407.825C1471.96 410.776 1464.59 412.253 1456.42 412.253L1456.38 412.153C1449.54 412.153 1443.09 411.075 1437.04 408.911C1431 406.747 1425.64 403.549 1420.96 399.32C1416.29 395.091 1412.65 389.73 1410 383.288C1407.34 376.846 1406.01 369.418 1406.01 361.009C1406.01 354.124 1406.9 347.925 1408.62 342.466C1410.34 336.959 1412.8 332.188 1415.9 328.058C1419.05 323.927 1422.74 320.533 1427.02 317.828C1431.29 315.124 1435.92 313.057 1440.88 311.68C1445.85 310.303 1451.01 309.615 1456.42 309.615Z" fill="#262626"/>
<path fill-rule="evenodd" clip-rule="evenodd" d="M1588.96 309.562C1596.28 309.563 1603.02 310.844 1609.17 313.352C1615.31 315.86 1620.68 319.452 1625.25 324.124C1629.82 328.747 1633.37 334.204 1635.92 340.449C1638.48 346.694 1639.76 353.532 1639.76 360.86C1639.76 366.76 1638.92 372.366 1637.3 377.578C1635.68 382.791 1633.32 387.513 1630.22 391.693C1627.12 395.873 1623.48 399.513 1619.3 402.562C1615.12 405.611 1610.45 407.973 1605.28 409.646C1600.12 411.317 1594.66 412.153 1588.91 412.153C1581.58 412.152 1574.79 410.876 1568.55 408.368C1562.3 405.86 1556.84 402.268 1552.22 397.596C1547.6 392.973 1544.05 387.512 1541.55 381.267C1539.04 375.022 1537.81 368.187 1537.81 360.86C1537.81 354.958 1538.65 349.35 1540.27 344.137C1541.89 338.924 1544.25 334.202 1547.25 330.022C1550.3 325.842 1553.89 322.202 1558.17 319.153C1562.4 316.104 1567.12 313.746 1572.34 312.074C1577.55 310.403 1583.06 309.562 1588.96 309.562ZM1588.76 325.892C1585.12 325.892 1581.63 326.485 1578.38 327.616C1575.09 328.747 1572.14 330.367 1569.48 332.481C1566.83 334.595 1564.57 337.057 1562.7 339.959C1560.83 342.811 1559.4 346.009 1558.36 349.55C1557.33 353.09 1556.84 356.877 1556.84 360.86C1556.84 367.547 1558.22 373.498 1561.02 378.76C1563.82 384.022 1567.61 388.153 1572.43 391.251C1577.25 394.3 1582.66 395.823 1588.76 395.823C1592.4 395.823 1595.84 395.235 1599.09 394.104C1602.33 392.973 1605.23 391.349 1607.89 389.234C1610.55 387.12 1612.81 384.662 1614.68 381.761C1616.55 378.909 1618.02 375.711 1619.1 372.17C1620.19 368.63 1620.68 364.843 1620.68 360.86C1620.68 354.172 1619.3 348.218 1616.54 342.956C1613.79 337.695 1610 333.566 1605.23 330.469C1600.41 327.42 1594.96 325.892 1588.76 325.892Z" fill="#262626"/>
<path d="M1259.55 411.024H1240.62V310.696H1259.55V411.024Z" fill="#262626"/>
<path d="M1377.83 327.025H1347.09V411.024H1328.16V327.025H1297.57V310.696H1377.83V327.025Z" fill="#262626"/>
<path d="M1700.7 411.024H1681.72V394.695H1681.76V327.025H1681.72V310.696H1700.7V411.024Z" fill="#262626"/>
<path d="M1812.09 381.516V310.696H1831.03V411.024H1810.52L1766.65 340.352V411.024H1747.72V310.696H1768.22L1812.09 381.516Z" fill="#262626"/>
<path fill-rule="evenodd" clip-rule="evenodd" d="M1162.42 310.696C1168.67 310.696 1174.18 311.678 1178.9 313.645C1183.62 315.612 1187.36 318.467 1190.11 322.155C1192.87 325.892 1194.24 330.319 1194.24 335.483C1194.24 340.646 1193.02 345.075 1190.56 348.517C1188.1 351.959 1185.19 354.514 1181.8 356.235C1186.72 358.055 1190.8 361.008 1194.14 365.139C1197.44 369.27 1199.11 374.728 1199.11 381.612C1199.11 387.612 1197.64 392.877 1194.69 397.303C1191.74 401.728 1187.65 405.119 1182.39 407.48C1177.13 409.84 1170.98 410.971 1163.85 410.971H1123.42V310.696H1162.42ZM1142.02 394.647H1161.78C1168.23 394.647 1173.05 393.415 1176.14 391.006C1179.29 388.548 1180.82 385.006 1180.82 380.335C1180.82 375.663 1179.24 372.219 1176.14 369.711C1173 367.253 1168.23 365.975 1161.78 365.975H1142.02V394.647ZM1142.02 349.943H1161.1C1166.21 349.943 1170 348.908 1172.51 346.793C1175.01 344.678 1176.24 341.728 1176.24 337.894C1176.24 334.058 1174.96 331.104 1172.41 328.989C1169.85 326.876 1165.97 325.844 1160.8 325.844H1142.02V349.943Z" fill="#262626"/>
</svg>
