<svg width="1008" height="1658" viewBox="0 0 1008 1658" fill="none" xmlns="http://www.w3.org/2000/svg">
<path fill-rule="evenodd" clip-rule="evenodd" d="M503.692 1629.09C867.52 1409.63 982.73 1012.67 982.73 775.112C982.73 638.385 968.087 550.67 953.25 454.798C896.403 466.444 855.173 472.683 757.406 472.683C658.006 472.683 578.942 449.363 503.692 449.363C428.376 449.363 349.3 472.683 249.964 472.683C152.198 472.683 110.993 466.444 54.056 454.798C39.2575 550.67 24.6016 638.372 24.6016 775.112C24.5886 1012.67 139.825 1409.63 503.692 1629.09Z" fill="#4375B0"/>
<path fill-rule="evenodd" clip-rule="evenodd" d="M831.344 142.032C831.347 136.164 832.506 130.355 834.755 124.935C837.003 119.516 840.297 114.592 844.449 110.445C848.6 106.299 853.528 103.01 858.95 100.768C864.372 98.5259 870.183 97.3736 876.051 97.377C881.906 97.3838 887.703 98.5445 893.11 100.793C898.516 103.041 903.427 106.333 907.561 110.48C911.695 114.627 914.971 119.548 917.202 124.962C919.433 130.376 920.575 136.176 920.563 142.032C920.573 153.849 915.89 165.186 907.542 173.55C899.195 181.915 887.867 186.621 876.051 186.635C864.21 186.638 852.853 181.944 844.471 173.581C836.089 165.219 831.368 153.872 831.344 142.032Z" fill="black"/>
<path fill-rule="evenodd" clip-rule="evenodd" d="M836.82 127.531C836.815 123.302 837.645 119.112 839.263 115.204C840.881 111.296 843.255 107.746 846.248 104.757C849.241 101.769 852.795 99.401 856.706 97.7894C860.617 96.1778 864.807 95.3544 869.037 95.3663C873.266 95.3595 877.454 96.1865 881.362 97.7999C885.271 99.4132 888.823 101.781 891.815 104.769C894.807 107.756 897.181 111.305 898.801 115.21C900.42 119.116 901.254 123.303 901.254 127.531C901.254 136.076 897.86 144.27 891.818 150.312C885.776 156.354 877.582 159.748 869.037 159.748C860.493 159.748 852.298 156.354 846.256 150.312C840.215 144.27 836.82 136.076 836.82 127.531Z" fill="white"/>
<path fill-rule="evenodd" clip-rule="evenodd" d="M778.711 105.547C778.711 80.9438 798.801 60.8926 823.418 60.8926C848.034 60.8926 868.021 80.9438 868.021 105.547C868.021 130.216 848.034 150.125 823.418 150.125C798.801 150.125 778.711 130.229 778.711 105.547Z" fill="black"/>
<path fill-rule="evenodd" clip-rule="evenodd" d="M784.203 91.1512C784.198 84.7724 786.086 78.5354 789.628 73.2301C793.169 67.9249 798.206 63.7899 804.099 61.3488C809.993 58.9078 816.478 58.2704 822.733 59.5174C828.989 60.7643 834.734 63.8396 839.241 68.3538C843.748 72.868 846.814 78.618 848.051 84.8758C849.288 91.1337 848.64 97.6178 846.19 103.507C843.739 109.397 839.596 114.426 834.285 117.96C828.974 121.493 822.734 123.371 816.355 123.355C807.823 123.341 799.645 119.942 793.617 113.905C787.589 107.867 784.203 99.6833 784.203 91.1512Z" fill="white"/>
<path fill-rule="evenodd" clip-rule="evenodd" d="M700.234 75.2761C700.234 63.438 704.937 52.0848 713.308 43.714C721.679 35.3433 733.032 30.6406 744.87 30.6406C756.708 30.6406 768.061 35.3433 776.432 43.714C784.803 52.0848 789.505 63.438 789.505 75.2761C789.514 81.1362 788.368 86.9406 786.133 92.3578C783.898 97.775 780.617 102.699 776.479 106.848C772.341 110.997 767.425 114.29 762.014 116.54C756.603 118.789 750.801 119.95 744.941 119.957C739.071 119.96 733.259 118.807 727.835 116.563C722.411 114.319 717.482 111.029 713.33 106.879C709.179 102.73 705.885 97.8033 703.638 92.3807C701.391 86.958 700.234 81.1458 700.234 75.2761Z" fill="black"/>
<path fill-rule="evenodd" clip-rule="evenodd" d="M705.68 60.8928C705.683 52.3446 709.077 44.1468 715.116 38.0974C721.156 32.0481 729.348 28.6412 737.897 28.624C746.453 28.624 754.659 32.0231 760.71 38.0734C766.76 44.1238 770.159 52.3298 770.159 60.8863C770.159 69.4428 766.76 77.6488 760.71 83.6992C754.659 89.7495 746.453 93.1486 737.897 93.1486C733.662 93.1503 729.469 92.3169 725.557 90.696C721.645 89.0751 718.091 86.6986 715.098 83.7025C712.106 80.7065 709.734 77.1496 708.117 73.2356C706.501 69.3216 705.673 65.1273 705.68 60.8928Z" fill="white"/>
<path fill-rule="evenodd" clip-rule="evenodd" d="M578.141 52.8261C578.137 40.9829 582.839 29.6234 591.211 21.2465C599.583 12.8697 610.939 8.16164 622.782 8.15821C634.626 8.15477 645.985 12.8562 654.362 21.2281C662.739 29.6001 667.447 40.9569 667.45 52.8001C667.452 58.6643 666.299 64.4714 664.056 69.8898C661.814 75.3083 658.526 80.2319 654.38 84.3797C650.235 88.5275 645.313 91.8182 639.896 94.0639C634.479 96.3096 628.673 97.4663 622.809 97.468C610.965 97.4715 599.606 92.77 591.229 84.3981C587.081 80.2527 583.79 75.3309 581.545 69.9138C579.299 64.4966 578.142 58.6902 578.141 52.8261Z" fill="black"/>
<path fill-rule="evenodd" clip-rule="evenodd" d="M583.586 38.4168C583.584 34.1862 584.416 29.9967 586.035 26.0879C587.654 22.1791 590.027 18.6277 593.019 15.6368C596.011 12.6459 599.563 10.2741 603.473 8.65708C607.382 7.04004 611.572 6.20949 615.803 6.2129C633.636 6.2129 648.098 20.6093 648.098 38.4168C648.094 42.652 647.256 46.8449 645.63 50.7557C644.005 54.6665 641.624 58.2185 638.625 61.2084C635.625 64.1983 632.066 66.5674 628.15 68.1803C624.234 69.7931 620.038 70.618 615.803 70.6078C611.573 70.6129 607.383 69.7839 603.474 68.1683C599.565 66.5527 596.012 64.1821 593.02 61.1922C590.027 58.2024 587.654 54.6518 586.035 50.7438C584.417 46.8357 583.584 42.6469 583.586 38.4168Z" fill="white"/>
<path fill-rule="evenodd" clip-rule="evenodd" d="M443.328 46.6782C443.333 37.8526 445.955 29.2266 450.862 21.8908C455.769 14.555 462.741 8.83883 470.896 5.46495C479.052 2.09107 488.024 1.21097 496.68 2.93591C505.335 4.66086 513.285 8.91341 519.524 15.1559C525.763 21.3984 530.011 29.3506 531.73 38.007C533.45 46.6635 532.565 55.6355 529.186 63.7889C525.808 71.9423 520.088 78.9108 512.749 83.8136C505.41 88.7163 496.783 91.3331 487.957 91.3331C482.094 91.3331 476.289 90.1779 470.872 87.9335C465.456 85.689 460.535 82.3994 456.391 78.2525C452.246 74.1055 448.959 69.1826 446.718 63.765C444.477 58.3473 443.325 52.5412 443.328 46.6782Z" fill="black"/>
<path fill-rule="evenodd" clip-rule="evenodd" d="M448.727 32.2428C448.721 28.0138 449.549 23.8251 451.163 19.916C452.777 16.0069 455.145 12.4539 458.131 9.45984C461.118 6.46582 464.665 4.08941 468.571 2.46629C472.476 0.843171 476.663 0.00513012 480.892 2.35671e-05C489.457 -0.0103125 497.676 3.37966 503.743 9.42525C509.811 15.4708 513.231 23.6776 513.251 32.2428C513.224 40.8036 509.801 49.0037 503.734 55.0437C497.668 61.0837 489.452 64.4701 480.892 64.4598C472.356 64.446 464.175 61.0457 458.144 55.0053C452.114 48.965 448.727 40.7783 448.727 32.2428Z" fill="white"/>
<path fill-rule="evenodd" clip-rule="evenodd" d="M76.2344 142.032C76.2344 130.189 80.939 118.83 89.3134 110.456C97.6878 102.082 109.046 97.377 120.889 97.377C126.756 97.3736 132.566 98.526 137.988 100.768C143.409 103.011 148.336 106.299 152.486 110.446C156.637 114.593 159.93 119.517 162.177 124.936C164.424 130.356 165.581 136.165 165.583 142.032C165.383 153.748 160.589 164.918 152.233 173.133C143.876 181.348 132.627 185.951 120.909 185.951C109.19 185.951 97.9412 181.348 89.5849 173.133C81.2285 164.918 76.434 153.748 76.2344 142.032Z" fill="black"/>
<path fill-rule="evenodd" clip-rule="evenodd" d="M81.6953 127.531C81.6953 123.303 82.5289 119.116 84.1486 115.21C85.7683 111.304 88.1422 107.756 91.1345 104.769C94.1268 101.781 97.6788 99.4132 101.587 97.7998C105.496 96.1864 109.684 95.3594 113.912 95.3663C122.455 95.3663 130.648 98.7598 136.688 104.8C142.729 110.841 146.123 119.034 146.123 127.577C146.123 136.119 142.729 144.312 136.688 150.353C130.648 156.393 122.455 159.787 113.912 159.787C105.363 159.78 97.1667 156.378 91.1252 150.33C85.0837 144.281 81.6919 136.08 81.6953 127.531Z" fill="white"/>
<path fill-rule="evenodd" clip-rule="evenodd" d="M124.594 105.547C124.601 93.7131 129.302 82.3648 137.667 73.993C146.031 65.6212 157.375 60.9098 169.21 60.8926C181.05 60.9029 192.402 65.6109 200.774 73.9831C209.146 82.3552 213.854 93.7074 213.865 105.547C213.863 111.407 212.706 117.21 210.46 122.622C208.215 128.035 204.924 132.952 200.777 137.092C196.63 141.232 191.707 144.514 186.29 146.75C180.874 148.986 175.07 150.133 169.21 150.125C163.352 150.131 157.55 148.983 152.137 146.746C146.723 144.509 141.804 141.226 137.66 137.086C133.516 132.946 130.229 128.029 127.987 122.617C125.745 117.206 124.592 111.405 124.594 105.547Z" fill="black"/>
<path fill-rule="evenodd" clip-rule="evenodd" d="M130.004 91.1518C129.853 86.8225 130.576 82.5073 132.129 78.4633C133.682 74.4193 136.033 70.7294 139.043 67.6136C142.052 64.4978 145.658 62.0198 149.646 60.3273C153.634 58.6349 157.921 57.7627 162.253 57.7627C166.585 57.7627 170.873 58.6349 174.86 60.3273C178.848 62.0198 182.454 64.4978 185.463 67.6136C188.473 70.7294 190.824 74.4193 192.377 78.4633C193.93 82.5073 194.653 86.8225 194.502 91.1518C194.502 95.3864 193.667 99.5793 192.045 103.491C190.422 107.402 188.045 110.955 185.047 113.946C182.05 116.938 178.492 119.308 174.577 120.923C170.663 122.538 166.468 123.364 162.234 123.356C158.003 123.357 153.813 122.526 149.904 120.908C145.994 119.291 142.442 116.919 139.449 113.929C136.456 110.938 134.082 107.388 132.461 103.48C130.841 99.5716 130.006 95.3826 130.004 91.1518Z" fill="white"/>
<path fill-rule="evenodd" clip-rule="evenodd" d="M196.68 75.276C196.704 63.4334 201.421 52.0833 209.799 43.713C218.177 35.3427 229.531 30.6348 241.373 30.6211C253.22 30.6211 264.582 35.3272 272.958 43.704C281.335 52.0809 286.041 63.4423 286.041 75.289C286.041 87.1356 281.335 98.4971 272.958 106.874C264.582 115.251 253.22 119.957 241.373 119.957C229.523 119.953 218.159 115.245 209.779 106.867C201.398 98.489 196.687 87.1262 196.68 75.276Z" fill="black"/>
<path fill-rule="evenodd" clip-rule="evenodd" d="M202.094 60.8928C202.114 52.3454 205.517 44.1535 211.559 38.1072C217.6 32.0608 225.789 28.6514 234.337 28.624C242.891 28.6377 251.09 32.0419 257.139 38.0905C263.187 44.1391 266.592 52.3388 266.605 60.8928C266.605 69.4476 263.207 77.652 257.158 83.7011C251.109 89.7502 242.904 93.1486 234.35 93.1486C225.795 93.1486 217.59 89.7502 211.541 83.7011C205.492 77.652 202.094 69.4476 202.094 60.8928Z" fill="white"/>
<path fill-rule="evenodd" clip-rule="evenodd" d="M308.094 52.8261C308.094 28.1835 328.106 8.1582 352.775 8.1582C364.488 8.35782 375.654 13.151 383.866 21.5049C392.079 29.8588 396.681 41.1047 396.681 52.8196C396.681 64.5344 392.079 75.7804 383.866 84.1343C375.654 92.4882 364.488 97.2814 352.775 97.481C340.931 97.4741 329.574 92.768 321.197 84.3959C312.82 76.0237 308.107 64.6696 308.094 52.8261Z" fill="black"/>
<path fill-rule="evenodd" clip-rule="evenodd" d="M313.516 38.4169C313.514 34.1862 314.346 29.9967 315.965 26.0879C317.583 22.1792 319.957 18.6278 322.949 15.6369C325.941 12.6459 329.493 10.2741 333.403 8.65711C337.312 7.04008 341.502 6.20952 345.732 6.21293C349.967 6.20611 354.162 7.03387 358.076 8.64889C361.991 10.2639 365.549 12.6346 368.547 15.6253C371.545 18.6161 373.924 22.1683 375.549 26.079C377.173 29.9897 378.011 34.1822 378.014 38.4169C378.011 42.6509 377.173 46.8428 375.548 50.7527C373.924 54.6627 371.544 58.2141 368.546 61.2038C365.548 64.1935 361.99 66.563 358.075 68.1766C354.161 69.7902 349.967 70.6163 345.732 70.6078C341.502 70.6146 337.312 69.7868 333.402 68.1718C329.491 66.5568 325.938 64.1863 322.946 61.1961C319.953 58.2059 317.58 54.6547 315.962 50.7458C314.343 46.837 313.512 42.6474 313.516 38.4169Z" fill="white"/>
<path fill-rule="evenodd" clip-rule="evenodd" d="M163.36 192.393C166.512 189.397 177.069 197.321 182.14 202.678C205.1 227.729 228.914 251.983 253.539 275.399C257.443 279.226 261.243 284.4 257.041 285.205C253.046 285.97 245.511 280.834 242.359 278.045C218.236 256.359 194.842 233.874 172.218 210.628C165.604 203.703 160.273 195.376 163.36 192.393Z" fill="black"/>
<path fill-rule="evenodd" clip-rule="evenodd" d="M143.234 178.541C145.439 175.467 147.89 172.381 150.588 169.437C154.128 166.402 164.725 173.846 170.834 180.759C178.395 189.488 182.117 197.698 178.667 200.772C175.789 202.807 173.055 205.039 170.483 207.451C167.513 209.734 158.344 202.86 153.545 197.957C153.42 197.84 153.303 197.714 153.195 197.581C144.777 190.668 140.692 184.469 142.923 181.498C142.936 180.487 142.806 179.281 143.234 178.541ZM200.508 167.673C206.046 165.014 217.836 172.679 224.658 181.524C251.674 217.697 274.475 246.01 293.722 268.603C297.769 273.519 299.195 279.083 293.579 279.718C288.236 280.328 280.376 275.4 276.2 271.107C251.632 244.789 227.945 217.663 205.177 189.773C197.681 180.305 194.659 170.604 200.508 167.673Z" fill="black"/>
<path fill-rule="evenodd" clip-rule="evenodd" d="M175.114 149.218C180.25 145.91 185.749 142.603 191.469 139.503C197.37 136.805 210.041 143.9 217.784 155.028C225.929 166.766 226.293 176.156 220.365 178.905C214.875 181.017 209.467 183.336 204.153 185.857C199.147 187.854 188.564 181.629 181.651 173.25C173.143 162.875 170.237 152.94 175.114 149.218ZM267.588 143.472C275.552 141.306 288.962 149.269 295.772 161.759C317.976 204.806 336.121 237.334 351.075 262.729C354.525 268.838 352.813 274.389 345.939 274.843C339.402 275.335 331.114 270.407 326.964 264.908C305.314 233.549 284.584 201.565 264.8 168.996C257.615 156.688 258.834 145.781 267.588 143.472Z" fill="black"/>
<path fill-rule="evenodd" clip-rule="evenodd" d="M238.443 119.192C247.64 115.983 256.926 113.033 266.289 110.347C274.746 108.35 289.7 115.885 296.911 131.293C303.785 146.312 299.09 156.182 290.815 158.374C281.996 160.255 273.332 162.265 264.954 164.47C258.028 166.039 245.356 159.866 237.574 147.648C228.924 133.757 230.493 122.513 238.443 119.192ZM366.662 124.588C376.948 123.356 390.916 132.084 395.04 147.492C406.713 195.766 416.051 231.381 423.639 258.76C425.338 265.686 420.552 271.068 412.861 271.302C405.39 271.626 397.141 266.736 394.171 260.031C383.432 233.313 370.268 198.632 353.887 152.071C349.024 137.052 355.911 126.015 366.662 124.588Z" fill="black"/>
<path fill-rule="evenodd" clip-rule="evenodd" d="M338.121 94.1996C350.78 92.0077 363.672 90.1271 376.862 88.5059C387.536 87.572 403.424 96.3396 406.978 115.016C410.259 132.551 400.065 141.954 390.221 143.225C378.574 144.406 367.096 145.69 355.799 147.181C346.941 147.985 332.596 141.254 326.604 125.56C319.847 108.129 327.551 96.4693 338.121 94.1996ZM488.674 116.352C500.179 116.274 512.098 126.287 511.657 142.771C508.842 192.835 506.676 229.526 504.926 257.489C504.251 264.674 496.988 269.849 489.102 269.94C481.204 269.94 473.941 264.843 473.059 257.658C471.165 229.669 468.779 193.107 465.809 143.212C465.368 126.896 477.079 116.546 488.674 116.352Z" fill="black"/>
<path fill-rule="evenodd" clip-rule="evenodd" d="M466.777 81.411C481.392 80.8746 496.017 80.6627 510.641 80.7755C522.418 81.2553 536.127 91.7479 533.974 111.436C532.145 129.464 518.086 137.726 507.982 137.972C495.129 137.972 482.25 138.102 469.501 138.413C459.514 138.348 445.559 130.411 443.652 112.512C441.655 93.0838 455.053 82.1632 466.777 81.411ZM612.882 121.617C623.958 122.72 631.299 133.692 626.28 149.269C613.264 186.151 599.609 222.805 585.321 259.213C582.26 266.01 573.843 271.029 566.269 270.821C558.461 270.588 553.48 265.283 555.128 258.241C565.021 220.736 574.528 183.13 583.648 145.43C587.967 129.684 602.376 120.567 612.882 121.617Z" fill="black"/>
<path fill-rule="evenodd" clip-rule="evenodd" d="M602.381 85.3021C616.064 86.625 629.436 88.2332 642.652 90.036C653.391 92.0074 661.757 103.525 654.74 121.591C648.281 137.985 633.366 145.002 624.261 144.379C612.414 143.108 600.55 142.001 588.672 141.059C578.594 140.047 567.998 130.878 571.422 113.031C575.002 93.8102 591.305 84.6925 602.381 85.3021ZM717.254 138.582C726.372 140.735 728.149 151.655 720.445 164.651C694.298 206.647 672.975 238.631 655.44 263.559C651.134 269.499 642.341 274.362 635.661 273.921C628.593 273.493 626.596 267.981 630.033 261.613C645.311 235.673 664.026 202.289 687.307 157.829C694.635 144.704 708.928 136.623 717.254 138.582Z" fill="black"/>
<path fill-rule="evenodd" clip-rule="evenodd" d="M718.468 104.563C728.805 107.169 738.882 109.906 748.506 112.889C756.884 116.093 758.947 127.493 749.466 142.201C740.984 155.313 727.482 161.487 720.076 160.06C710.945 157.952 701.773 156.019 692.567 154.263C683.981 152.278 678.69 142.473 685.979 126.78C693.748 110.464 709.649 102.799 718.468 104.563ZM790.126 162.109C796.351 164.872 793.524 174.924 785.34 184.975C760.942 213.952 735.701 242.208 709.649 269.707C705.161 274.233 696.834 279.239 691.18 278.617C685.356 277.903 686.472 272.469 690.778 267.242C710.972 243.923 734.953 214.598 763.784 176.83C771.592 167.129 784.251 159.464 790.126 162.109Z" fill="black"/>
<path fill-rule="evenodd" clip-rule="evenodd" d="M799.74 132.654C806.095 135.78 812.204 139.01 817.846 142.343C823.215 146.078 820.427 156.363 810.985 167.478C803.112 176.687 791.738 182.86 786.316 180.954C780.479 178.445 774.557 176.139 768.561 174.041C762.309 171.395 762.309 161.823 771.012 149.411C779.702 137.311 793.398 130.19 799.74 132.654ZM831.736 186.998C835.251 190.072 829.713 198.632 822.359 206.063C797.894 230.325 772.668 253.808 746.719 276.476C743.049 279.576 735.099 284.738 730.857 283.999C726.37 283.207 730.053 277.903 734.372 273.817C760.73 249.377 786.277 224.077 810.972 197.957C816.938 191.913 828.26 183.989 831.736 186.998Z" fill="black"/>
<path fill-rule="evenodd" clip-rule="evenodd" d="M845.583 162.9C848.67 165.935 851.484 168.996 854.039 172.174C856.451 175.961 851.095 184.638 842.989 192.692C837.36 198.347 827.49 204.935 824.118 202.692C821.098 200.286 817.988 197.997 814.793 195.831C811.07 192.938 814.715 184.443 823.106 175.079C830.175 167.271 841.783 159.865 845.583 162.9ZM247.275 277.268C247.275 277.268 393.301 259.356 501.028 259.356C600.986 259.356 749.645 276.567 749.645 276.567C756.491 276.72 763.005 279.546 767.793 284.442C772.581 289.337 775.262 295.912 775.262 302.76C775.262 309.607 772.581 316.183 767.793 321.078C763.005 325.973 756.491 328.8 749.645 328.952C749.645 328.952 602.776 311.793 499.913 311.793C398.852 311.793 247.275 329.614 247.275 329.614C243.835 329.617 240.429 328.942 237.252 327.627C234.074 326.312 231.186 324.383 228.755 321.951C226.324 319.518 224.397 316.63 223.083 313.452C221.77 310.273 221.096 306.867 221.102 303.428C221.102 288.928 232.761 277.268 247.275 277.268Z" fill="black"/>
<path fill-rule="evenodd" clip-rule="evenodd" d="M242.469 325.243C242.469 325.243 399.442 312.649 499.919 311.754C599.137 310.82 754.035 320.184 754.035 320.184V390.286C754.035 390.286 599.786 373.127 501.034 373.127C400.726 373.127 242.469 390.947 242.469 390.947V325.243Z" fill="black"/>
<path fill-rule="evenodd" clip-rule="evenodd" d="M247.275 373.594C247.275 373.594 400.72 355.657 501.028 355.657C598.12 355.657 749.645 372.881 749.645 372.881C764.133 372.881 775.818 384.606 775.818 399.093C775.818 413.541 764.146 425.305 749.645 425.305C749.645 425.305 751.772 399.936 501.028 399.936C234.305 399.936 247.275 425.979 247.275 425.979C243.836 425.981 240.431 425.305 237.254 423.989C234.076 422.674 231.19 420.745 228.759 418.313C226.328 415.88 224.401 412.993 223.087 409.815C221.773 406.638 221.098 403.232 221.102 399.793C221.102 385.241 232.761 373.594 247.275 373.594Z" fill="black"/>
<path fill-rule="evenodd" clip-rule="evenodd" d="M462.124 330.898L500.022 350.962L534.82 330.898L500.022 312.766L462.124 330.898ZM348.379 330.431L384.786 327.785C391.27 327.357 396.925 332.247 397.327 338.731V338.861C397.52 341.961 396.483 345.012 394.441 347.353C392.399 349.693 389.517 351.135 386.42 351.364L350.027 353.919C346.926 354.116 343.874 353.082 341.531 351.042C339.188 349.003 337.743 346.122 337.511 343.024C337.391 341.483 337.577 339.932 338.059 338.463C338.542 336.993 339.31 335.634 340.321 334.463C341.331 333.292 342.564 332.333 343.947 331.641C345.33 330.949 346.836 330.537 348.379 330.431ZM282.039 343.024C282.039 330.249 292.324 319.86 305.112 319.86C311.149 320.003 316.89 322.502 321.109 326.822C325.328 331.142 327.69 336.941 327.69 342.979C327.69 349.017 325.328 354.816 321.109 359.136C316.89 363.456 311.149 365.955 305.112 366.098C298.996 366.087 293.133 363.653 288.808 359.328C284.484 355.004 282.049 349.141 282.039 343.024ZM409.324 333.362C409.331 327.246 411.765 321.382 416.091 317.059C420.417 312.735 426.281 310.305 432.398 310.302C438.508 310.302 444.369 312.729 448.69 317.05C453.011 321.371 455.438 327.232 455.438 333.343C455.438 339.453 453.011 345.314 448.69 349.635C444.369 353.956 438.508 356.383 432.398 356.383C419.687 356.383 409.324 346.072 409.324 333.362ZM610.589 327.37L646.943 329.899C650.062 330.106 652.971 331.541 655.033 333.889C657.095 336.238 658.141 339.309 657.942 342.428C657.709 345.545 656.25 348.442 653.885 350.484C651.519 352.527 648.44 353.548 645.322 353.322L608.994 350.78C607.451 350.681 605.942 350.279 604.555 349.596C603.168 348.913 601.929 347.963 600.91 346.8C599.89 345.637 599.11 344.285 598.615 342.82C598.119 341.355 597.918 339.807 598.021 338.265C598.244 335.154 599.693 332.258 602.05 330.215C604.406 328.172 607.478 327.149 610.589 327.37ZM541.538 333.362C541.739 327.383 544.255 321.717 548.555 317.558C552.855 313.4 558.603 311.075 564.585 311.075C570.567 311.075 576.315 313.4 580.616 317.558C584.916 321.717 587.432 327.383 587.633 333.362C587.432 339.341 584.916 345.007 580.616 349.166C576.315 353.324 570.567 355.649 564.585 355.649C558.603 355.649 552.855 353.324 548.555 349.166C544.255 345.007 541.739 339.341 541.538 333.362ZM668.797 343.024C668.797 330.249 679.108 319.86 691.819 319.86C704.529 319.86 714.944 330.236 714.944 343.024C714.944 355.657 704.529 366.098 691.819 366.098C679.108 366.098 668.797 355.657 668.797 343.024Z" fill="white"/>
<path fill-rule="evenodd" clip-rule="evenodd" d="M507.787 1108.55C507.787 1108.55 499.408 1108.51 490.433 1122.23C481.51 1135.92 474.247 1147.69 473.015 1166.79C471.835 1185.83 481.601 1202.39 467.607 1213.5C451.77 1226.12 375.223 1218.47 363.278 1217.83C351.397 1217.25 330.84 1217.99 323.72 1220.45C316.496 1222.76 315.329 1225.77 309.401 1230.57C306.265 1232.98 303.268 1235.57 300.426 1238.33L277.457 1241.76C280.193 1248.17 273.151 1246.07 273.151 1246.07L242.438 1282.19C226.395 1281.88 214.281 1280.12 202.297 1272.46C202.297 1272.46 216.849 1253.8 228.768 1242.46L241.142 1235.24C247.354 1224.2 276.821 1198.74 281.296 1195.76C286.601 1192.25 310.193 1191.95 328.856 1190.64C345.846 1189.37 372.707 1188.92 372.707 1188.92C379.127 1189.21 392.564 1188.87 395.663 1182.41L400.527 1171.55C404.885 1159.17 398.361 1141.81 400.527 1122.97C403.562 1096.19 407.621 1063.03 419.541 1056.57C434.274 1048.46 458.307 1046.09 471.861 1051.68C466.932 1038.93 450.746 1030.17 439.332 1014.68C433.042 1006.05 424.132 991.823 424.132 991.823C415.805 988.153 423.211 964.742 417.608 957.077C417.608 957.077 372.019 927.74 352.448 909.349C352.448 909.349 341.073 886.872 332.215 889.518C325.004 882.281 308.688 866.626 308.688 866.626C299.168 856.951 277.392 849.273 269.844 843.838C270.233 854.422 270.09 867.832 270.648 882.229C284.188 891.139 284.668 910.659 284.123 925.561C285.135 929.543 298.792 946.663 303.798 950.891C298.053 973.51 267.678 1012.65 267.678 1012.65C258.832 1004.01 254.669 997.673 251.569 975.585C245.292 965.404 241.116 945.768 241.116 934.199C241.116 934.199 224.644 926.002 224.903 916.728C225.37 891.139 231.998 866.25 230.895 837.496C213.529 831.841 202.959 833.424 185.644 838.041C181.636 850.738 175.255 850.362 165.58 862.087C169.743 872.54 161.352 888.584 161.352 888.584C145.425 891.671 132.948 894.641 114.557 893.72C103.818 893.136 83.6108 894.317 87.2942 889.505C96.5286 877.534 110.977 849.778 110.977 849.778L115.672 843.099C117.799 840.129 121.794 832.36 125.01 832.36C133.674 818.418 145.801 811.933 155.671 810.117L172.843 797.796L239.507 797.445C241.129 789.223 246.122 780.896 255.227 778.795C255.227 778.795 284.188 776.655 298.053 785.825C298.053 785.825 306.042 789.365 311.36 790.961C324.602 795.137 331.774 797.342 346.482 795.682L349.893 777.978C344.264 771.986 350.113 740.651 354.77 727.512L345.354 724.14C341.527 734.451 335.873 737.707 324.978 736.916L313.837 746.409C295.939 736.916 282.087 732.221 278.468 719.912C283.669 707.967 287.794 657.476 281.568 640.991L274.305 631.588C267.418 616.906 277.133 589.618 265.252 579.955L265.758 577.063C265.758 577.063 225.915 554.301 235.072 522.953C243.917 529.127 248.132 533.394 256.77 537.285C249.663 522.953 251.971 508.129 251.971 508.129L285.732 527.065C296.445 531.241 315.017 528.673 327.39 524.99L345.587 522.927C348.713 522.292 401.785 522.927 443.509 536.027C501.6 554.275 573.492 634.986 597.162 656.101C617.2 668.837 630.572 691.495 637.212 712.688C641.492 726.397 645.617 751.351 650.441 776.227C658.016 816.187 666.148 847.184 667.561 879.259C668.832 907.546 669.637 924.303 679.623 950.8C693.631 988.477 729.959 1069.71 767.169 1064.09C804.107 1058.55 788.012 1006 776.897 984.482C759.569 950.839 737.728 915.82 734.239 906.936C726.211 886.172 667.691 810.519 727.624 743.595C736.262 734.036 768.337 713.129 807.246 729.873C806.922 729.588 839.242 741.286 839.242 741.286C848.567 744.788 862.095 750.962 862.095 750.962L870.149 765.319L893.028 767.304C902.068 779.794 903.896 799.002 903.948 803.775C904.026 808.457 902.197 816.913 902.197 816.913L898.747 812.309L882.769 792.284L873.573 796.239C883.067 808.366 883.832 824.513 882.159 839.234L894.247 852.346C897.593 851.594 904.506 858.105 900.434 859.739L895.674 869.026L893.093 864.953C893.093 864.953 890.032 852.619 867.866 858.066C862.653 856.86 853.574 855.758 853.574 855.758C851.979 865.264 846.103 879.181 846.103 879.181L820.955 893.564C819.943 884.382 817.531 864.318 817.531 864.318L815.832 857.47L807.829 851.75L807.272 853.501C796.883 842.606 798.452 831.582 801.526 818.015H790.074C787.597 814.682 795.794 812.581 797.544 812.841C800.515 803.775 792.357 781.921 792.357 781.921C743.344 757.252 736.301 806.55 736.301 806.55C736.301 806.55 736.301 846.277 748.337 867.236C760.723 888.986 802.849 955.223 803.251 955.923C818.244 980.189 841.252 1023.99 829.165 1066.71C821.435 1094.31 788.128 1127.63 788.128 1127.63C772.681 1131.61 772.746 1132.03 770.619 1137.58C768.57 1143.19 766.313 1150.83 766.313 1154.97C766.313 1166.88 758.466 1199.91 730.296 1227.52C715.965 1241.52 702.865 1271.01 702.865 1271.01C696.302 1287.74 728.014 1311.88 724.797 1318.71C709.973 1350.35 686.822 1359.27 673.956 1400.06C678.469 1423.92 668.832 1428.85 656.706 1438.31C650.519 1443.16 638.237 1448.07 638.237 1448.07C638.561 1449.79 642.776 1488.66 640.338 1489.4C632.05 1506.02 598.614 1532.66 578.732 1533.69L586.046 1467.5C585.618 1463.94 589.107 1452.89 588.524 1450.93C607.421 1441.86 639.287 1372.99 642.984 1354.21L642.374 1353.07C646.524 1337.83 649.391 1319.14 633.736 1310.4C622.971 1300.84 574.179 1266.25 572.558 1263.27C570.587 1252.4 557.331 1222.09 553.505 1211.32C553.505 1211.32 551.3 1228.6 539.342 1228.6C504.972 1228.6 512.041 1199.75 512.599 1193.81C514.35 1174.61 528.149 1159.94 528.603 1155.55C529.291 1149.57 522.858 1135.84 522.858 1135.84L507.787 1108.55Z" fill="#F6E546" stroke="black" stroke-width="10.0516" stroke-miterlimit="2.613"/>
<path fill-rule="evenodd" clip-rule="evenodd" d="M308.211 629.293C308.213 627.618 308.546 625.959 309.191 624.412C309.836 622.866 310.781 621.462 311.971 620.282C313.161 619.102 314.572 618.169 316.124 617.536C317.675 616.904 319.337 616.584 321.013 616.596C323.549 616.596 326.028 617.35 328.135 618.761C330.242 620.172 331.883 622.177 332.849 624.523C333.815 626.868 334.062 629.447 333.56 631.933C333.057 634.419 331.828 636.7 330.027 638.486C328.226 640.272 325.936 641.483 323.446 641.965C320.956 642.447 318.379 642.179 316.041 641.194C313.704 640.209 311.712 638.552 310.318 636.433C308.924 634.315 308.191 631.83 308.211 629.293ZM308.211 632.043C308.211 626.453 312.738 621.862 318.393 621.862C323.944 621.862 328.444 626.453 328.444 632.043C328.444 634.726 327.378 637.299 325.481 639.196C323.584 641.094 321.011 642.159 318.328 642.159C315.645 642.159 313.072 641.094 311.174 639.196C309.277 637.299 308.211 634.726 308.211 632.043Z" fill="#CA0088"/>
<path fill-rule="evenodd" clip-rule="evenodd" d="M308.211 629.293C308.213 627.618 308.546 625.959 309.191 624.412C309.836 622.866 310.781 621.462 311.971 620.282C313.161 619.102 314.572 618.169 316.124 617.536C317.675 616.904 319.337 616.584 321.013 616.596C323.549 616.596 326.028 617.35 328.135 618.761C330.242 620.172 331.883 622.177 332.849 624.523C333.815 626.868 334.062 629.447 333.56 631.933C333.057 634.419 331.828 636.7 330.027 638.486C328.226 640.272 325.936 641.483 323.446 641.965C320.956 642.447 318.379 642.179 316.041 641.194C313.704 640.209 311.712 638.552 310.318 636.433C308.924 634.315 308.191 631.83 308.211 629.293Z" fill="black"/>
<path fill-rule="evenodd" clip-rule="evenodd" d="M308.211 632.043C308.211 626.453 312.737 621.861 318.392 621.861C323.943 621.861 328.444 626.453 328.444 632.043C328.444 634.726 327.378 637.299 325.481 639.196C323.584 641.093 321.01 642.159 318.327 642.159C315.644 642.159 313.071 641.093 311.174 639.196C309.277 637.299 308.211 634.726 308.211 632.043Z" fill="#F6E546"/>
<path fill-rule="evenodd" clip-rule="evenodd" d="M305.655 692.079C308.262 694.18 309.222 693.791 308.262 697.54C307.341 701.34 305.24 703.882 305.24 703.882C305.24 703.882 300.571 703.142 300.571 706.074C300.571 709.044 299.404 712.844 301.466 714.076C303.554 715.412 304.501 717.513 308.703 714.621C312.918 711.521 313.774 710.846 313.774 706.087C313.774 701.353 314.215 697.15 313.774 693.791C313.385 690.406 316.303 687.436 312.075 686.645C307.886 685.776 304.397 685.335 304.008 687.449C303.528 689.589 302.996 689.926 305.655 692.079ZM299.715 726.449C298.483 728.096 305.227 732.739 308.69 732.324C312.166 731.896 316.692 731.533 319.235 729.432C321.79 727.292 347.703 718.732 347.703 718.732C347.703 718.732 321.79 723.012 318.405 724.348C314.565 725.969 315.123 729.808 309.105 728.589C303.1 727.292 300.999 724.763 299.715 726.449ZM483.964 1067.9C466.558 1047.18 445.443 1026.69 439.348 1014.68L424.147 991.823C415.82 988.153 426.417 963.212 417.623 957.077C392.643 939.711 383.967 933.187 352.463 909.349C347.522 899.92 332.23 889.518 332.23 889.518C325.019 882.281 308.703 866.626 308.703 866.626C299.183 856.951 277.407 849.273 269.859 843.838L231.312 821.012L270.209 831.206C270.209 831.206 314.734 859.636 321.569 862.969C328.456 866.315 336.484 878.688 347.574 885.342C358.611 891.995 380.296 923.603 397.157 928.324C414.057 932.967 432.499 934.056 440.476 934.056C448.439 934.056 471.603 920.983 479.541 926.832C495.74 938.751 437.337 939.529 431.605 964.717C428.816 976.895 467.622 1027.41 479.606 1042.92C490.448 1057.05 525.921 1072.85 526.958 1078.27C528.152 1083.9 530.473 1092.81 538.203 1098.37C545.933 1103.9 549.824 1118.63 548.735 1131.94C547.619 1145.27 553.922 1176.67 553.922 1180.17C553.922 1199.25 572.547 1263.28 572.547 1263.28L527.529 1154.65C527.516 1154.67 506.7 1095.06 483.964 1067.9ZM371.97 601.615C376.678 607.568 390.101 601.485 390.101 601.485L398.207 615.934C398.207 615.934 395.873 592.887 396.846 587.141C398.986 573.99 411.968 567.881 397.416 574.768C382.929 581.59 378.156 589.631 369.311 591.836C360.53 594.209 349.688 585.961 339.467 590.28C329.234 594.547 367.236 595.688 371.97 601.615ZM389.505 842.412C381.554 840.064 370.647 837.224 361.205 835.291C343.384 831.699 332.606 824.565 332.606 824.565L339.805 809.105L346.51 795.708L349.895 778.004C344.266 772.012 350.116 740.677 354.772 727.539C354.772 727.539 352.878 717.267 361.205 707.721C369.583 698.266 383.902 689.887 383.902 689.887C383.902 689.887 395.691 674.894 398.078 666.503C400.503 658.267 401.8 620.733 401.8 620.733C401.8 620.733 410.633 655.79 400.568 685.102C400.568 685.102 394.33 696.359 391.697 698.11C389.051 699.835 382.268 710.172 381.399 713.713C380.504 717.266 374.343 734.283 373.513 742.181C372.579 750.132 376.081 764.126 376.081 774.411C376.081 784.722 379.881 790.273 383.137 797.018C386.392 803.814 391.697 804.683 395.198 809.987C398.726 815.188 408.168 818.522 408.168 828.132V841.089L395.198 841.997L389.505 842.412Z" fill="black" stroke="black" stroke-width="2.49019" stroke-miterlimit="2.613"/>
<path fill-rule="evenodd" clip-rule="evenodd" d="M371.759 757.149C372.563 739.782 382.018 728.654 389.943 717.267C397.789 705.776 403.742 704.258 412.471 697.267C421.303 690.225 426.349 685.219 432.47 675.543C438.618 665.868 439.228 661.484 443.611 652.107C448.021 642.665 455.038 620.11 455.038 620.11C455.038 620.11 447.749 668.734 441.861 679.071C435.959 689.317 429.176 696.995 418.606 708.421C408.126 719.835 403.12 721.664 393.431 732.727C383.743 743.946 381.37 748.602 376.973 758.926C372.563 769.159 370.851 774.425 371.759 757.149Z" fill="black" stroke="black" stroke-width="2.49019" stroke-miterlimit="2.613"/>
<path fill-rule="evenodd" clip-rule="evenodd" d="M377.833 782.051C377.833 782.051 383.76 751.87 396.989 738.874C401.84 734.088 424.822 712.857 436.858 704.258C448.92 695.776 471.708 668.734 475.858 659.979C480.021 651.238 493.199 619.241 493.199 619.241C493.199 619.241 487.038 647.943 486.221 653.857C485.313 659.733 473.225 682.56 461.877 695.503C450.398 708.421 418.622 733.894 414.213 738.018C409.894 742.182 392.553 758.627 390.763 766.565C389.025 774.411 389.025 784.735 389.025 787.407C389.025 790.014 392.294 801.155 384.616 800.286C376.976 799.417 375.213 782.972 375.213 782.972L377.833 782.051ZM230.937 837.509C213.544 831.855 202.974 833.437 185.66 838.054C181.652 850.752 175.271 850.375 165.595 862.1C169.759 872.554 161.367 888.597 161.367 888.597C151.718 890.374 126.297 892.8 126.297 892.8L143.715 856.601C143.715 856.601 151.056 858.43 153.663 855.369C156.348 852.204 152.652 844.876 152.652 844.876C154.766 841.906 170.848 831.686 174.065 831.686C182.702 817.847 195.244 821.66 205.088 819.767L231.313 821.025L261.066 840.064L230.937 837.509Z" fill="black" stroke="black" stroke-width="2.49019" stroke-miterlimit="2.613"/>
<path fill-rule="evenodd" clip-rule="evenodd" d="M269.845 843.852C270.273 854.435 270.091 867.846 270.649 882.242C284.189 891.152 284.669 910.672 284.124 925.574C285.136 929.556 298.793 946.676 303.8 950.904C301.776 958.945 290.83 978.802 290.83 978.802L274.215 947.389C274.215 947.389 277.25 933.849 269.404 937.857C263.191 927.753 282.438 905.147 269.248 894.745C264.242 890.789 253.723 898.299 253.931 889.038C254.489 863.319 262.18 868.844 261.051 840.065L269.845 843.852ZM479.592 1042.95C454.249 1020.47 524.843 1077.04 535.932 1097.2C546.957 1117.4 547.605 1113.16 548.721 1131.96C549.81 1150.79 552.754 1173.27 553.908 1180.2C554.946 1187.08 548.033 1156.23 549.097 1125.85C550.238 1095.44 549.473 1112.61 553.48 1099.41C556.671 1088.54 562.572 1084.89 578.538 1080.91C591.43 1077.74 606.099 1083.34 606.605 1073.35C606.981 1067.01 600.249 1065.67 586.009 1062.46C576.281 1060.25 565.088 1063.16 556.671 1066.87C546.892 1071.15 533.87 1085.28 533.87 1085.28C533.87 1085.28 489.345 1051.59 479.592 1042.95ZM553.48 1211.36C553.48 1211.36 551.276 1228.64 539.317 1228.64C504.948 1228.64 512.016 1199.79 512.574 1193.85C514.325 1174.65 528.125 1159.98 528.579 1155.59C529.266 1149.61 522.833 1135.88 522.833 1135.88L553.48 1211.36ZM770.581 1127.71C770.581 1139.64 758.416 1199.95 730.258 1227.56C715.927 1241.56 702.827 1271.05 702.827 1271.05C696.265 1287.78 727.976 1311.92 724.759 1318.75C709.935 1350.39 692.516 1361.24 673.918 1400.1C678.431 1423.96 668.795 1428.89 656.668 1438.35C650.481 1443.2 638.199 1448.11 638.199 1448.11C638.523 1449.82 636.344 1494.47 640.3 1489.43C636.733 1496.68 631.481 1501.5 619.73 1511.21L619.963 1458.86L622.7 1443.46C622.168 1439.89 641.169 1437.76 652.621 1428.22C664.579 1405.53 649.911 1407.76 689.17 1349.32C689.17 1349.32 703.203 1328.23 705.538 1316.7C707.743 1305.89 697.938 1290.63 689.858 1277.08C669.638 1255.89 728.819 1226.65 746.393 1193.45C761.71 1164.43 770.581 1123.62 770.581 1127.71ZM557.722 946.274C557.722 946.274 519.876 985.274 551.211 964.795C563.065 957.039 599.134 933.94 614.996 903.24C624.451 884.94 629.937 852.58 629.937 852.58C629.937 852.58 606.864 891.554 588.395 913.616C577.293 927.014 557.722 946.274 557.722 946.274ZM575.594 983.238C565.815 993.043 542.936 1013.46 550.238 1008.09C557.384 1002.72 610.379 979.853 628.485 945.133C638.536 925.678 642.544 897.196 642.544 890.711C642.544 884.304 626.591 925.924 611.792 945.444C599.432 961.695 590.094 968.764 575.594 983.238ZM478.347 717.007C483.21 712.222 486.764 705.698 498.826 697.151C510.875 688.604 529.11 659.045 533.546 655.155C533.546 655.155 535.219 675.387 523.845 688.383C512.444 701.288 453.95 760.443 453.95 760.443C453.95 760.443 465.169 729.938 478.347 717.007ZM239.508 797.459C249.612 798.315 254.514 798.665 263.593 796.421C263.593 796.421 291.595 798.47 305.434 807.666L332.605 824.566L338.974 812.257L318.066 807.251C311.594 805.357 290.091 794.554 286.874 794.554C283.541 794.554 267.744 791.324 264.527 791.324C261.298 791.324 254.67 795.552 249.132 795.552C243.581 795.565 239.508 797.459 239.508 797.459ZM558.396 890.154C558.396 890.154 520.395 929.115 551.755 908.636C563.636 900.971 598.006 877.106 614.983 847.237C629.444 821.634 635.294 774.567 635.294 774.567C635.294 774.567 612.169 828.534 589.044 857.483C578.136 871.127 558.396 890.154 558.396 890.154ZM265.772 577.09C265.772 577.09 225.929 554.328 235.086 522.98C237.317 540.67 240.209 541.085 247.277 550.359C252.777 557.57 261.259 557.466 264.384 566.026C265.889 570.099 265.772 577.09 265.772 577.09ZM282.659 562.33C282.659 562.33 242.751 539.529 251.985 508.155C255.254 522.37 258.613 525.872 265.552 535.586C271.181 543.459 280.234 544.237 282.335 553.627C283.048 556.961 282.659 562.33 282.659 562.33Z" fill="black" stroke="black" stroke-width="2.49019" stroke-miterlimit="2.613"/>
<path d="M333.477 572.044C333.477 572.044 336.33 577.09 349.689 574.833C363.1 572.472 362.243 568.893 370.959 561.241C379.493 553.666 389.895 543.329 396.419 542.253C403.008 541.086 412.462 536.572 413.591 547.713C414.771 558.893 411.957 567.894 397.405 574.781C382.917 581.603 378.144 589.644 369.299 591.849C360.519 594.223 347.821 586.272 337.588 590.539" stroke="black" stroke-width="6.16064" stroke-miterlimit="2.613"/>
<path fill-rule="evenodd" clip-rule="evenodd" d="M336.184 574.483C336.184 574.483 335.639 575.948 349.167 576.986C363.862 578.062 363.408 570.643 372.071 563.186C380.709 555.806 391.072 550.696 397.609 549.607C404.184 548.439 410.656 547.713 404.21 554.353C393.329 565.598 400.307 560.644 391.513 566.104C377.986 574.599 386.61 573.263 377.778 575.663C369.01 577.907 371.099 571.097 360.814 575.313C350.593 579.541 336.184 574.483 336.184 574.483ZM311.477 635.363C311.477 632.25 314.447 629.734 318.052 629.734C321.749 629.734 324.602 632.237 324.602 635.363C324.602 638.488 321.749 641.017 318.052 641.017C314.447 641.017 311.477 638.488 311.477 635.363Z" fill="black" stroke="black" stroke-width="2.49019" stroke-miterlimit="2.613"/>
<path d="M306.586 624.274C306.586 613.976 314.134 605.792 323.499 605.792C332.953 605.792 340.528 613.976 340.528 624.274C340.528 634.429 332.953 642.691 323.499 642.691C314.121 642.691 306.586 634.442 306.586 624.274Z" stroke="black" stroke-width="6.16064" stroke-miterlimit="2.613"/>
<path fill-rule="evenodd" clip-rule="evenodd" d="M285.823 631.459C288.65 628.567 295.602 627.931 298.261 624.792C298.261 612.964 310.024 602.082 320.582 590.902C328.234 591.914 300.219 610.085 304.992 627.646C304.992 627.646 274.928 642.34 285.823 631.459ZM747.092 865.044C747.417 865.823 747.832 866.523 748.285 867.275C760.672 889.025 802.797 955.262 803.199 955.962C818.193 980.229 843.834 1024.86 829.113 1066.75C820.709 1090.95 789.218 1118.93 789.218 1118.93C776.754 1128.17 776.171 1140.7 776.171 1140.7C776.171 1140.7 758.739 1140.7 766.625 1123.8C779.698 1095.67 784.03 1107.58 793.524 1101.55C803.096 1095.57 811.941 1072.57 811.941 1072.57C811.941 1072.57 820.709 1057.07 820.709 1036.06C820.709 1015.07 812.201 983.653 793.978 955.054C775.872 926.404 770.243 917.753 770.243 917.753L754.887 885.342L747.092 865.044ZM810.125 831.167C818.257 840.064 821.02 832.114 832.161 836.031C843.276 840.064 835.053 864.487 826.078 873.423L838.14 883.228L820.916 893.617C819.905 884.434 817.492 864.37 817.492 864.37L815.793 857.522L807.791 851.802L807.233 853.553C796.844 842.658 798.414 831.634 801.488 818.068C801.488 818.068 802.019 822.179 810.125 831.167ZM867.945 858.118C868.801 856.795 865.156 858.287 866.168 856.964L853.522 855.81C853.522 855.81 855.04 856.795 848.36 840.492C841.772 824.319 847.374 817.64 849.372 811.946C851.252 806.265 857.854 809.106 857.854 809.106C857.854 809.106 862.666 809.988 857.854 816.641C853.146 823.411 853.146 830.104 855.04 837.717C856.985 845.304 867.945 858.118 867.945 858.118ZM755.549 778.964C741.463 782.193 736.25 806.603 736.25 806.603C736.25 806.603 731.996 834.137 742.786 855.628C742.786 855.628 733.293 841.154 729.609 822.763C725.511 801.933 728.169 785.254 740.659 769.068C747.935 759.406 759.076 757.577 771.761 756.124C754.42 776.603 755.549 778.964 755.549 778.964ZM830.916 789.145C826.662 757.006 797.83 755.67 797.83 755.67C797.83 755.67 823.64 769.976 821.617 799.573C821.435 803.23 813.938 812.452 813.938 812.452C813.938 812.452 833.367 808.068 830.916 789.145ZM843.276 769.976C846.285 781.091 847.076 783.062 854.248 785.981C861.395 788.99 873.548 796.292 873.548 796.292L874.261 801.155C874.261 801.155 873.145 802.932 861.213 797.005C849.307 791 840.086 788.211 838.14 782.025C836.104 775.89 840.345 758.77 843.276 769.976ZM242.75 1282.18L273.151 1246.06C273.151 1246.06 257.963 1234.14 266.614 1234.14L300.427 1238.31C300.427 1238.31 303.41 1235.29 309.402 1230.56C315.329 1225.76 316.496 1222.74 323.72 1220.44C330.828 1217.98 351.398 1217.24 363.278 1217.82C375.223 1218.46 451.784 1226.11 467.607 1213.49C481.601 1202.39 471.835 1185.81 473.015 1166.77C474.247 1147.68 481.51 1135.9 490.434 1122.22C499.422 1108.5 507.787 1108.54 507.787 1108.54L522.145 1134.74C501.004 1157.05 493.391 1160.75 490.421 1183.1C489.526 1189.72 490.421 1200.49 490.421 1200.49C489.344 1222.74 477.243 1230.25 473.002 1235.21C450.288 1233.86 427.578 1232.43 404.872 1230.95L337.326 1232.37C333.461 1239.38 319.946 1252.71 320.737 1252.43L301.84 1255.84H289.26L280.09 1275.3C280.103 1275.32 251.012 1283.95 242.75 1282.18Z" fill="black" stroke="black" stroke-width="2.49019" stroke-miterlimit="2.613"/>
<path d="M239.5 797.458C239.5 797.458 250.33 796.758 263.598 796.421C276.84 796.149 296.593 803.074 297.773 803.074C298.927 803.074 327.941 823.502 334.854 826.913C341.767 830.35 384.606 842.087 389.495 842.412C394.579 842.658 409.067 841.05 409.067 841.05" stroke="black" stroke-width="14.8115" stroke-miterlimit="2.613"/>
<path fill-rule="evenodd" clip-rule="evenodd" d="M240.038 402.179C266.289 377.977 477.514 377.705 500.082 377.705C522.636 377.705 733.927 377.977 760.19 402.179C762.291 404.202 772.097 401.556 772.097 407.159C772.097 432.917 691.749 441.555 680.167 442.619C634.085 446.938 570.404 449.674 500.082 449.674C477.514 449.674 251.983 445.731 231.647 420.22C229.818 417.872 234.785 419.234 234.785 413.657C234.816 411.484 235.299 409.341 236.203 407.365C237.108 405.389 238.414 403.623 240.038 402.179ZM715.12 417.652C715.12 409.053 570.858 403.476 500.069 403.476C469.771 403.476 285.043 405.084 285.043 417.652C285.043 433.332 470.433 431.62 500.069 431.62C570.858 431.62 715.12 433.332 715.12 417.652Z" fill="black"/>
<path fill-rule="evenodd" clip-rule="evenodd" d="M503.694 1629.09C867.522 1409.63 982.732 1012.67 982.732 775.112C982.732 638.385 968.089 550.67 953.252 454.798C896.405 466.445 855.174 472.683 757.408 472.683C658.008 472.683 578.944 449.363 503.694 449.363C428.378 449.363 349.302 472.683 249.966 472.683C152.2 472.683 110.995 466.445 54.058 454.798C39.2595 550.67 24.6036 638.372 24.6036 775.112C24.5907 1012.67 139.827 1409.63 503.694 1629.09ZM503.694 424.76C578.944 424.76 658.008 448.131 757.408 448.131C850.453 448.131 886.522 443.696 973.718 425.382C994.029 558.076 1007.36 637.788 1007.36 775.125C1007.36 1015.97 892.099 1416.62 527.83 1643.13L503.694 1657.73L479.531 1643.13C115.21 1416.62 0 1015.97 0 775.125C0 637.788 13.281 558.076 33.6047 425.382C120.8 443.696 156.856 448.131 249.966 448.131C349.302 448.118 428.378 424.76 503.694 424.76Z" fill="black"/>
<path fill-rule="evenodd" clip-rule="evenodd" d="M250.508 380.326C250.508 380.326 461.5 362.505 550.122 362.505C266.733 386.538 250.508 408.185 250.508 408.185C246.813 408.185 243.27 406.717 240.658 404.105C238.046 401.493 236.578 397.95 236.578 394.255C236.578 390.561 238.046 387.018 240.658 384.406C243.27 381.793 246.813 380.326 250.508 380.326ZM250.508 285.218C250.508 285.218 461.5 267.372 550.122 267.372C266.733 291.431 250.508 313.065 250.508 313.065C248.681 313.068 246.873 312.711 245.185 312.013C243.497 311.315 241.964 310.291 240.673 308.999C239.383 307.707 238.36 306.173 237.664 304.485C236.968 302.796 236.612 300.987 236.617 299.161C236.617 291.496 242.842 285.218 250.508 285.218Z" fill="#F6E546"/>
<path d="M325.422 556.131C325.422 556.131 332.088 560.06 340.726 559.062C354.15 557.57 355.317 552.369 365.836 547.545C376.38 542.85 389.311 537.908 395.874 536.702C402.436 535.625 412.462 536.559 413.59 547.713" stroke="black" stroke-width="6.16064" stroke-miterlimit="2.613"/>
</svg>
